<svg xmlns="http://www.w3.org/2000/svg" width="148.007" height="148.006" viewBox="0 0 148.007 148.006">
  <defs>
    <style>
      .cls-1 {
        fill: #ff8aa9;
      }

      .cls-2 {
        fill: #fff;
      }
    </style>
  </defs>
  <g id="icon-password" transform="translate(-580.83 -964.994)">
    <g id="组_154" data-name="组 154" transform="translate(580.831 964.994)">
      <path id="路径_246" data-name="路径 246" class="cls-1" d="M147.992,74c.74,45.933-28.057,74.7-73.99,73.99C28.069,148.7-.7,119.936.012,74-.7,28.07,28.069-.7,74,.013,119.935-.7,148.7,28.07,147.992,74Z" transform="translate(0 0)"/>
    </g>
    <path id="路径_260" data-name="路径 260" class="cls-2" d="M136.847,75.1c10.754,0,19.472,8.237,19.472,18.4v7.184h3.92c7.431,0,13.455,5.689,13.455,12.706v24.239c0,7.017-6.024,12.706-13.455,12.706H113.455c-7.431,0-13.455-5.689-13.455-12.706V113.388c0-7.017,6.024-12.706,13.455-12.706h3.92V93.5c0-10.059,8.544-18.233,19.15-18.4Zm0,42.784h0a2.622,2.622,0,0,0-2.69,2.5v13.724a2.616,2.616,0,0,0,2.646,2.542h.046a2.622,2.622,0,0,0,2.69-2.5V120.426a2.619,2.619,0,0,0-2.69-2.542Zm0-37.7c-7.782,0-14.091,5.961-14.091,13.314v7.023h28.182V93.5c0-7.28-6.183-13.195-13.858-13.312Z" transform="translate(517.987 920.281)"/>
  </g>
</svg>
