<?xml version="1.0" standalone="no"?><!DOCTYPE svg PUBLIC "-//W3C//DTD SVG 1.1//EN" "http://www.w3.org/Graphics/SVG/1.1/DTD/svg11.dtd"><svg t="1645158149201" class="icon" viewBox="0 0 1024 1024" version="1.1" xmlns="http://www.w3.org/2000/svg" p-id="7242" xmlns:xlink="http://www.w3.org/1999/xlink" width="25" height="25"><defs><style type="text/css"></style></defs><path d="M512.0512 511.3856m-450.816 0a450.816 450.816 0 1 0 901.632 0 450.816 450.816 0 1 0-901.632 0Z" fill="#e9f4ff" p-id="7243" data-spm-anchor-id="a313x.7781069.0.i6" class=""></path><path d="M746.5472 276.5312c-47.616-0.0512-133.7856-11.7248-207.7696-83.968-13.1072-12.8-33.5872-14.1312-47.9744-2.816-38.4 30.2592-117.4528 81.6128-214.1184 84.0192-19.7632 0.512-35.4816 16.7424-35.4816 36.5056v229.8368c0 46.4896-2.6624 149.7088 253.5936 295.8336a36.73088 36.73088 0 0 0 34.56 0.9216c252.3648-126.9248 253.5936-235.8784 253.5936-277.7088V313.0368c0-20.1216-16.2816-36.5056-36.4032-36.5056zM483.1232 346.5728a28.928 28.928 0 0 1 57.856 0v184.2688a28.928 28.928 0 0 1-57.856 0V346.5728z m28.928 325.2736c-21.5552 0-39.0656-17.5104-39.0656-39.0656s17.5104-39.0656 39.0656-39.0656 39.0656 17.5104 39.0656 39.0656c0.0512 21.5552-17.4592 39.0656-39.0656 39.0656z" fill="#2595e8" p-id="7244" data-spm-anchor-id="a313x.7781069.0.i8" class=""></path><path d="M760.7296 342.6816c0-22.1184-1.792-43.776-5.12-64.9728a35.584 35.584 0 0 0-9.1136-1.2288c-47.616-0.0512-133.7856-11.7248-207.7696-83.968-13.1072-12.8-33.5872-14.1824-47.9744-2.816-38.4 30.2592-117.4528 81.6128-214.1184 84.0192-19.7632 0.512-35.4816 16.7424-35.4816 36.5056v229.8368c0 37.5808-1.6896 112.2304 132.9664 216.6272 216.0128-14.6432 386.6112-194.304 386.6112-414.0032z m-277.6064 3.8912a28.928 28.928 0 0 1 57.856 0v184.2688a28.928 28.928 0 0 1-57.856 0V346.5728z m28.928 247.0912c21.5552 0 39.0656 17.5104 39.0656 39.0656s-17.5104 39.0656-39.0656 39.0656-39.0656-17.5104-39.0656-39.0656 17.5104-39.0656 39.0656-39.0656z" fill="#3a9ced" p-id="7245" data-spm-anchor-id="a313x.7781069.0.i7" class=""></path><path d="M538.7776 192.5632c-13.1072-12.8-33.5872-14.1824-47.9744-2.816-38.4 30.2592-117.4528 81.6128-214.1184 84.0192-19.7632 0.512-35.4816 16.7424-35.4816 36.5056v229.8368c0 16.384-0.3072 39.8848 10.496 69.7856 86.784-4.0448 166.5536-34.7648 231.424-84.0704V346.5728a28.928 28.928 0 0 1 57.856 0v125.8496c52.7872-58.7776 89.0368-132.6592 101.4272-214.3744-33.8432-12.3904-69.9904-32.6656-103.6288-65.4848z" fill="#59adf8" p-id="7246" data-spm-anchor-id="a313x.7781069.0.i5" class=""></path><path d="M520.3968 182.784c-10.1376-2.048-20.9408 0.1024-29.5936 6.912-38.4 30.2592-117.4528 81.6128-214.1184 84.0192-19.7632 0.512-35.4816 16.7424-35.4816 36.5056v137.3696c130.9184-37.12 235.4176-136.8576 279.1936-264.8064z" fill="#6bc2fc" p-id="7247" data-spm-anchor-id="a313x.7781069.0.i2" class=""></path></svg>