<svg id="undraw_data_re_80ws" xmlns="http://www.w3.org/2000/svg" width="503.977" height="390.893" viewBox="0 0 503.977 390.893">
  <defs>
    <style>
      .cls-1 {
        fill: #f2f2f2;
      }

      .cls-2 {
        fill: #fff;
      }

      .cls-3 {
        fill: #ccc;
      }

      .cls-4 {
        fill: #4b9ef8;
      }

      .cls-5 {
        fill: #3f3d56;
      }

      .cls-6 {
        fill: #ffb8b8;
      }

      .cls-7 {
        fill: #2f2e41;
      }

      .cls-8 {
        opacity: 0.2;
      }

      .cls-9 {
        fill: #e6e6e6;
      }

      .cls-10 {
        fill: #cecdd2;
      }

      .cls-11 {
        fill: #f2e251;
      }

      .cls-12 {
        fill: #ff6584;
      }
    </style>
  </defs>
  <path id="路径_83" data-name="路径 83" class="cls-1" d="M614.468,352.567H266.8a9.116,9.116,0,0,1-8.951-9.252V121.744a6.678,6.678,0,0,1,6.558-6.779H616.747a6.794,6.794,0,0,1,6.671,6.9V343.315A9.116,9.116,0,0,1,614.468,352.567Z" transform="translate(-181.244 -107.224)"/>
  <path id="路径_84" data-name="路径 84" class="cls-2" d="M611.318,352.808H287.3a8.488,8.488,0,0,1-8.614-8.337V151.524a6.292,6.292,0,0,1,6.383-6.183H613.443a6.4,6.4,0,0,1,6.489,6.285V344.471A8.489,8.489,0,0,1,611.318,352.808Z" transform="translate(-190.778 -120.567)"/>
  <path id="路径_85" data-name="路径 85" class="cls-3" d="M623.188,115.15H257.618v-4.711a9.146,9.146,0,0,1,8.984-9.28H614.2a9.146,9.146,0,0,1,8.984,9.28Z" transform="translate(-181.138 -101.159)"/>
  <ellipse id="椭圆_96" data-name="椭圆 96" class="cls-2" cx="2.324" cy="2.402" rx="2.324" ry="2.402" transform="translate(90.484 4.607)"/>
  <ellipse id="椭圆_97" data-name="椭圆 97" class="cls-2" cx="2.324" cy="2.402" rx="2.324" ry="2.402" transform="translate(99.305 4.607)"/>
  <ellipse id="椭圆_98" data-name="椭圆 98" class="cls-2" cx="2.324" cy="2.402" rx="2.324" ry="2.402" transform="translate(108.125 4.607)"/>
  <path id="路径_86" data-name="路径 86" class="cls-3" d="M606.326,346.166h-251.1a9.668,9.668,0,0,1-9.494-9.813V211.226a7.231,7.231,0,0,1,7.1-7.339H608.606a7.347,7.347,0,0,1,7.214,7.456v125.01A9.668,9.668,0,0,1,606.326,346.166ZM352.835,205.008a6.126,6.126,0,0,0-6.015,6.217V336.353a8.563,8.563,0,0,0,8.409,8.691h251.1a8.563,8.563,0,0,0,8.409-8.691V211.343a6.241,6.241,0,0,0-6.129-6.335Z" transform="translate(-221.45 -146.285)"/>
  <path id="路径_87" data-name="路径 87" class="cls-1" d="M371.914,344.126H605.652a8.83,8.83,0,0,0,8.68-8.972v-104.6a8.83,8.83,0,0,0-8.68-8.972H371.914a8.83,8.83,0,0,0-8.68,8.972v104.6A8.829,8.829,0,0,0,371.914,344.126Z" transform="translate(-229.456 -154.058)"/>
  <ellipse id="椭圆_99" data-name="椭圆 99" class="cls-3" cx="4.883" cy="5.047" rx="4.883" ry="5.047" transform="translate(164.116 87.863)"/>
  <ellipse id="椭圆_100" data-name="椭圆 100" class="cls-3" cx="4.883" cy="5.047" rx="4.883" ry="5.047" transform="translate(164.116 106.927)"/>
  <ellipse id="椭圆_101" data-name="椭圆 101" class="cls-3" cx="4.883" cy="5.047" rx="4.883" ry="5.047" transform="translate(164.116 125.992)"/>
  <ellipse id="椭圆_102" data-name="椭圆 102" class="cls-3" cx="4.883" cy="5.047" rx="4.883" ry="5.047" transform="translate(164.116 145.056)"/>
  <path id="路径_88" data-name="路径 88" class="cls-3" d="M633.282,266.976H472.7a.561.561,0,0,1,0-1.121H633.282a.561.561,0,0,1,0,1.121Z" transform="translate(-279.285 -173.506)"/>
  <path id="路径_89" data-name="路径 89" class="cls-3" d="M633.282,300.977H472.7a.561.561,0,0,1,0-1.121H633.282a.561.561,0,0,1,0,1.121Z" transform="translate(-279.285 -188.442)"/>
  <path id="路径_90" data-name="路径 90" class="cls-3" d="M633.282,334.976H472.7a.561.561,0,0,1,0-1.121H633.282a.561.561,0,0,1,0,1.121Z" transform="translate(-279.285 -203.377)"/>
  <path id="路径_91" data-name="路径 91" class="cls-3" d="M633.282,368.976H472.7a.561.561,0,0,1,0-1.121H633.282a.561.561,0,0,1,0,1.121Z" transform="translate(-279.285 -218.313)"/>
  <path id="路径_92" data-name="路径 92" class="cls-4" d="M513.6,387.6H497.867a2.762,2.762,0,0,1-2.713-2.8v-15.14a2.762,2.762,0,0,1,2.712-2.8H513.6a2.763,2.763,0,0,1,2.713,2.8V384.8A2.762,2.762,0,0,1,513.6,387.6Z" transform="translate(-289.807 -217.873)"/>
  <path id="路径_93" data-name="路径 93" class="cls-4" d="M578.6,372.666H562.867a2.762,2.762,0,0,1-2.713-2.8v-34.2a2.762,2.762,0,0,1,2.713-2.8H578.6a2.763,2.763,0,0,1,2.713,2.8v34.2A2.762,2.762,0,0,1,578.6,372.666Z" transform="translate(-319.543 -202.938)"/>
  <path id="路径_94" data-name="路径 94" class="cls-4" d="M644.6,357.731H628.867a2.762,2.762,0,0,1-2.713-2.8V301.659a2.762,2.762,0,0,1,2.713-2.8H644.6a2.762,2.762,0,0,1,2.713,2.8v53.269A2.762,2.762,0,0,1,644.6,357.731Z" transform="translate(-349.737 -188.003)"/>
  <path id="路径_95" data-name="路径 95" class="cls-4" d="M712.6,343.235H696.867a2.762,2.762,0,0,1-2.713-2.8V268.659a2.762,2.762,0,0,1,2.713-2.8H712.6a2.762,2.762,0,0,1,2.713,2.8v71.772A2.762,2.762,0,0,1,712.6,343.235Z" transform="translate(-380.846 -173.506)"/>
  <path id="路径_96" data-name="路径 96" class="cls-5" d="M633.282,402.976H472.7a.561.561,0,0,1,0-1.121H633.282a.561.561,0,0,1,0,1.121Z" transform="translate(-279.285 -233.248)"/>
  <path id="路径_97" data-name="路径 97" class="cls-6" d="M898.419,582.437a5.433,5.433,0,0,1,3.935-2.494,5.347,5.347,0,0,1,4.377,1.517l17.228-9.19-1.071,10.354-16.2,7.139a5.353,5.353,0,0,1-7.284.135,5.8,5.8,0,0,1-.988-7.46Z" transform="translate(-473.869 -308.108)"/>
  <path id="路径_98" data-name="路径 98" class="cls-5" d="M924.58,556.853a2.531,2.531,0,0,1-.826-1.24l-1.37-4.575a2.581,2.581,0,0,1,.861-2.759l13.963-10.9,15.123-29a7.7,7.7,0,0,1,11.035-1.435,8.313,8.313,0,0,1,1.388,11.405l-8.6,18.768a25.556,25.556,0,0,1-12.729,12.727l-16.364,7.336a2.372,2.372,0,0,1-1.991-.022,2.417,2.417,0,0,1-.487-.307Z" transform="translate(-485.207 -278.662)"/>
  <ellipse id="椭圆_103" data-name="椭圆 103" class="cls-6" cx="13.325" cy="13.772" rx="13.325" ry="13.772" transform="translate(466.602 190.074)"/>
  <path id="路径_99" data-name="路径 99" class="cls-6" d="M880.536,664.964h-6.651l-3.163-26.515h9.817Z" transform="translate(-406.015 -280.456)"/>
  <path id="路径_100" data-name="路径 100" class="cls-7" d="M860.985,682.233h12.827v8.347h-20.9A8.215,8.215,0,0,1,860.985,682.233Z" transform="translate(-397.865 -299.69)"/>
  <path id="路径_101" data-name="路径 101" class="cls-6" d="M920.536,664.966h-6.651l-3.164-26.516h9.817Z" transform="translate(-424.314 -280.456)"/>
  <path id="路径_102" data-name="路径 102" class="cls-7" d="M900.984,682.234h12.828v8.347h-20.9A8.215,8.215,0,0,1,900.984,682.234Z" transform="translate(-416.164 -299.69)"/>
  <path id="路径_103" data-name="路径 103" class="cls-7" d="M997.433,701.943h-7.795a2.461,2.461,0,0,1-2.357-1.867l-11.219-43.008a.272.272,0,0,0-.306-.2.279.279,0,0,0-.227.293l2.266,40.788a2.569,2.569,0,0,1-.734,1.952,2.4,2.4,0,0,1-1.907.707l-8.761-.755a2.487,2.487,0,0,1-2.222-2.223l-7.981-85.647,3.088,1.915,28.932-5.077,11.642,90.268a2.582,2.582,0,0,1-.583,2,2.408,2.408,0,0,1-1.837.861Z" transform="translate(-500.723 -324.162)"/>
  <path id="路径_104" data-name="路径 104" class="cls-5" d="M965.386,572.231a17.438,17.438,0,0,1-9.056-2.634,2.542,2.542,0,0,1-1.159-2.573c1.018-6.44,6.339-39.479,11.18-57.49,1.972-7.336,6.332-11.287,12.959-11.743,9.694-.657,18.31,7.181,19.207,17.494,1.583,18.195-4.846,44.045-7.684,54.315a2.485,2.485,0,0,1-1.59,1.7,2.376,2.376,0,0,1-2.255-.409l-5.784-4.65a1.869,1.869,0,0,0-2.45.106C973.879,570.841,969.248,572.231,965.386,572.231Z" transform="translate(-500.242 -275.373)"/>
  <path id="路径_105" data-name="路径 105" class="cls-8" d="M904.956,443.738l4.882,21.308-7.054,17.943,4.884-17.382Z" transform="translate(-420.683 -194.924)"/>
  <path id="路径_106" data-name="路径 106" class="cls-7" d="M997.993,461.616a8.715,8.715,0,0,0,3.466-.648c.485-.193.988-.352,1.473-.545,4.276-1.707,7.093-6.414,7.194-11.15a16.264,16.264,0,0,0-5.8-12.364,22.007,22.007,0,0,0-12.66-4.945c-4.924-.388-10.468.9-13.219,5.14a4.581,4.581,0,0,0-.811,3.859,2.481,2.481,0,0,0,.673,1.069c1.229,1.13,2.454.28,3.706.205a4.12,4.12,0,0,1,3.823,3.024,9.4,9.4,0,0,1-.138,5.265,13.52,13.52,0,0,0-.641,3.2,3.26,3.26,0,0,0,1.29,2.834,3.459,3.459,0,0,0,3.565-.388,24.656,24.656,0,0,1,3.169-2.1,2.741,2.741,0,0,1,3.4.711,3.973,3.973,0,0,1,.43,1.283c.607,2.857.467,2.689,1.074,5.545Z" transform="translate(-510.463 -246.445)"/>
  <path id="路径_107" data-name="路径 107" class="cls-9" d="M903.625,670.477l-83.437-30.033a5.971,5.971,0,0,1-3.521-7.528l21.682-64.348a4.163,4.163,0,0,1,5.336-2.666l86.257,31.048a4.45,4.45,0,0,1,2.624,5.611l-21.657,64.277a5.682,5.682,0,0,1-7.284,3.639Z" transform="translate(-436.748 -305.205)"/>
  <path id="路径_108" data-name="路径 108" class="cls-2" d="M833.408,642.994l72.96,26.261a5.5,5.5,0,0,0,7.063-3.529l17.508-51.96a5.783,5.783,0,0,0-3.414-7.3l-72.96-26.262a5.5,5.5,0,0,0-7.063,3.529l-17.508,51.96A5.783,5.783,0,0,0,833.408,642.994Z" transform="translate(-442.848 -311.453)"/>
  <path id="路径_109" data-name="路径 109" class="cls-4" d="M866.83,622.152l-3.613-1.3a.817.817,0,0,1-.482-1.03l1.258-3.735a.777.777,0,0,1,1-.5l3.613,1.3a.816.816,0,0,1,.482,1.03l-1.258,3.735A.778.778,0,0,1,866.83,622.152Z" transform="translate(-457.949 -327.117)"/>
  <path id="路径_110" data-name="路径 110" class="cls-5" d="M860.82,639.408l-3.613-1.3a.817.817,0,0,1-.482-1.03l1.258-3.734a.777.777,0,0,1,1-.5l3.613,1.3a.817.817,0,0,1,.482,1.03l-1.258,3.735A.778.778,0,0,1,860.82,639.408Z" transform="translate(-455.199 -334.697)"/>
  <path id="路径_111" data-name="路径 111" class="cls-3" d="M854.811,656.664l-3.613-1.3a.816.816,0,0,1-.482-1.03l1.258-3.735a.777.777,0,0,1,1-.5l3.613,1.3a.817.817,0,0,1,.482,1.03l-1.258,3.735A.778.778,0,0,1,854.811,656.664Z" transform="translate(-452.45 -342.277)"/>
  <path id="路径_112" data-name="路径 112" class="cls-3" d="M899.95,633.039l-17.41-6.266a.816.816,0,0,1-.482-1.03.776.776,0,0,1,1-.5l17.41,6.266a.816.816,0,0,1,.482,1.03.776.776,0,0,1-1,.5Z" transform="translate(-466.789 -331.359)"/>
  <path id="路径_113" data-name="路径 113" class="cls-3" d="M893.941,650.3l-17.41-6.266a.816.816,0,0,1-.482-1.03.777.777,0,0,1,1-.5l17.41,6.266a.816.816,0,0,1,.482,1.03A.776.776,0,0,1,893.941,650.3Z" transform="translate(-464.04 -338.939)"/>
  <path id="路径_114" data-name="路径 114" class="cls-3" d="M887.931,667.551l-17.409-6.266a.816.816,0,0,1-.482-1.03.777.777,0,0,1,1-.5l17.41,6.267a.816.816,0,0,1,.482,1.03A.777.777,0,0,1,887.931,667.551Z" transform="translate(-461.29 -346.519)"/>
  <path id="路径_115" data-name="路径 115" class="cls-4" d="M975.415,665.378c.127-.314.246-.634.356-.96a17.1,17.1,0,0,0-10.1-21.588l-5.722,16.982Z" transform="translate(-502.443 -339.103)"/>
  <path id="路径_116" data-name="路径 116" class="cls-5" d="M943.322,660.912l5.722-16.983a16.265,16.265,0,0,0-20.776,10.113,17.138,17.138,0,0,0,9.363,21.673,16.225,16.225,0,0,0,21.154-9.237Z" transform="translate(-487.478 -339.17)"/>
  <path id="路径_117" data-name="路径 117" class="cls-6" d="M994.63,612.483a5.746,5.746,0,0,1,1.607-4.472,5.352,5.352,0,0,1,4.349-1.6l8.069-18.219,5.339,8.83-8.481,15.948a5.467,5.467,0,0,1-10.883-.488Z" transform="translate(-518.3 -315.102)"/>
  <path id="路径_118" data-name="路径 118" class="cls-5" d="M1014.4,569.924a2.39,2.39,0,0,1-1.391-.449l-3.81-2.726a2.575,2.575,0,0,1-.97-2.72l4.479-17.484-5.414-32.462a7.869,7.869,0,1,1,15.729-.079l4.436,20.255a26.775,26.775,0,0,1-2.417,18.133l-8.493,16.21a2.458,2.458,0,0,1-1.579,1.252A2.343,2.343,0,0,1,1014.4,569.924Z" transform="translate(-524.101 -278.96)"/>
  <path id="路径_120" data-name="路径 120" class="cls-6" d="M490.54,664.466h6.651l3.164-26.515h-9.816Z" transform="translate(-232.087 -280.237)"/>
  <path id="路径_121" data-name="路径 121" class="cls-7" d="M589.914,782.4h13.1a8.491,8.491,0,0,1,8.348,8.627v.28H589.914Z" transform="translate(-333.158 -400.411)"/>
  <path id="路径_122" data-name="路径 122" class="cls-6" d="M441.54,664.466h6.651l3.164-26.515h-9.816Z" transform="translate(-209.671 -280.237)"/>
  <path id="路径_123" data-name="路径 123" class="cls-7" d="M540.914,782.4h13.1a8.491,8.491,0,0,1,8.347,8.628v.28H540.914Z" transform="translate(-310.741 -400.411)"/>
  <ellipse id="椭圆_104" data-name="椭圆 104" class="cls-6" cx="13.325" cy="13.772" rx="13.325" ry="13.772" transform="translate(246.456 173.115)"/>
  <path id="路径_124" data-name="路径 124" class="cls-10" d="M578.108,685.343H565.765a2.4,2.4,0,0,1-1.736-.75,2.568,2.568,0,0,1-.7-1.8l.717-60.576a.83.83,0,0,0-.759-.85.821.821,0,0,0-.862.738l-7.183,61.023a2.473,2.473,0,0,1-2.423,2.218H540.351a2.406,2.406,0,0,1-1.793-.81,2.576,2.576,0,0,1-.641-1.91L546.146,573.8l.224-.025,39.4-4.4L580.546,682.94A2.476,2.476,0,0,1,578.108,685.343Z" transform="translate(-309.367 -306.837)"/>
  <path id="路径_125" data-name="路径 125" class="cls-11" d="M551.828,535.956a2.479,2.479,0,0,1-2.433-2.444c-.215-6.881-.583-30.69,3.7-48.169a22.391,22.391,0,0,1,20.5-17.292h0a22.319,22.319,0,0,1,22,14.592c7.2,18.9,14.007,42.192,5.523,45.846-11.119,4.788-40.43,6.923-49.149,7.462Q551.9,535.956,551.828,535.956Z" transform="translate(-314.568 -262.312)"/>
  <path id="路径_126" data-name="路径 126" class="cls-6" d="M642.331,401.827a5.769,5.769,0,0,0,.676.613l-1.4,27.77-5.818,3.079,3.348,9.683,10.812-4.416a4.5,4.5,0,0,0,2.727-4.587l-2.832-31.5a6,6,0,0,0,2.068-6.34,5.744,5.744,0,0,0-5.006-4.243,5.667,5.667,0,0,0-5.611,3.338,6.036,6.036,0,0,0,1.035,6.605Z" transform="translate(-354.145 -228.859)"/>
  <path id="路径_127" data-name="路径 127" class="cls-11" d="M630.841,460.774l4.093,12.021a2.6,2.6,0,0,1-.185,2.093,2.446,2.446,0,0,1-1.654,1.222l-12.068,2.415a6.727,6.727,0,0,1-8.634-4.31,7.069,7.069,0,0,1,4.17-8.924L627.4,459.38a2.37,2.37,0,0,1,2.03-.117A2.487,2.487,0,0,1,630.841,460.774Z" transform="translate(-343.268 -258.39)"/>
  <path id="路径_128" data-name="路径 128" class="cls-6" d="M532.72,401.827a5.8,5.8,0,0,1-.676.613l1.4,27.77,5.818,3.079-3.347,9.683L525.1,438.556a4.5,4.5,0,0,1-2.727-4.587l2.832-31.5a6,6,0,0,1-2.068-6.34,5.744,5.744,0,0,1,5.006-4.243,5.667,5.667,0,0,1,5.611,3.338,6.036,6.036,0,0,1-1.035,6.605Z" transform="translate(-302.251 -228.859)"/>
  <path id="路径_129" data-name="路径 129" class="cls-11" d="M540.433,459.263a2.367,2.367,0,0,1,2.03.118l10.836,5.912a7.069,7.069,0,0,1,4.17,8.924,6.727,6.727,0,0,1-8.634,4.31l-12.069-2.416a2.447,2.447,0,0,1-1.654-1.222,2.6,2.6,0,0,1-.185-2.092l4.093-12.021A2.485,2.485,0,0,1,540.433,459.263Z" transform="translate(-307.939 -258.389)"/>
  <path id="路径_130" data-name="路径 130" class="cls-7" d="M585.63,417.479a9.1,9.1,0,0,1,4.9-8.5c4.05-2.161,6.595-6.771,5.48-10.98-1.427-5.388-8.522-8.882-14.271-7.029a25.97,25.97,0,0,0-4.482,2.153l-3.756,2.081a38.635,38.635,0,0,0-4.63,2.825,16.118,16.118,0,0,0-6.114,14.876c.74,5.478,4.21,10.5,8.961,13.94a14.917,14.917,0,0,0,6.141,2.821,7.955,7.955,0,0,0,6.477-1.517c2.6-2.287,2.333-6.118,1.492-9.317A6.993,6.993,0,0,1,585.63,417.479Z" transform="translate(-320.674 -228.244)"/>
  <path id="路径_132" data-name="路径 132" class="cls-9" d="M277.908,556.565l-85.054,36.064a5.893,5.893,0,0,1-7.766-3.357l-26.036-65.595a4.566,4.566,0,0,1,2.379-5.881l87.93-37.283a4.392,4.392,0,0,1,5.788,2.5l26.008,65.523a6.233,6.233,0,0,1-3.247,8.027Z" transform="translate(-135.896 -267.65)"/>
  <path id="路径_133" data-name="路径 133" class="cls-2" d="M202.866,591.341l74.374-31.536a6.037,6.037,0,0,0,3.149-7.784l-21.024-52.967a5.709,5.709,0,0,0-7.531-3.255l-74.374,31.536a6.037,6.037,0,0,0-3.149,7.784l21.024,52.967A5.708,5.708,0,0,0,202.866,591.341Z" transform="translate(-142.828 -274.319)"/>
  <path id="路径_200" data-name="路径 200" class="cls-9" d="M0,.014,1.19,0l0,.2L0,.217Z" transform="translate(115.025 239.632) rotate(-22.306)"/>
  <path id="路径_134" data-name="路径 134" class="cls-9" d="M266.939,530.4l-2.209.937-.075-.188,2.209-.937Zm-4.418,1.874-2.209.937-.075-.189,2.209-.937ZM258.1,534.15l-2.209.936-.075-.188,2.209-.937Zm-4.418,1.873-2.209.937-.075-.188,2.209-.937Zm-4.418,1.873-2.209.937-.075-.188,2.209-.937Zm-4.418,1.873-2.209.937-.075-.188,2.209-.937Zm-4.418,1.873-2.209.937-.075-.188,2.209-.937Zm-4.418,1.873-2.209.937-.075-.188,2.209-.937Zm-4.418,1.873-2.209.937-.075-.188,2.209-.937Zm-4.418,1.873-2.209.937-.075-.188,2.209-.937Zm-4.418,1.873-2.209.937-.075-.188,2.209-.937Zm-4.418,1.873-2.209.937-.075-.188,2.209-.937Zm-4.418,1.873-2.209.937-.075-.188,2.209-.937Zm-4.418,1.873-2.209.937-.075-.188,2.209-.936Zm-4.418,1.873-2.209.937-.075-.188,2.209-.937Zm-4.418,1.873-2.209.937-.075-.188,2.209-.937Z" transform="translate(-154.04 -289.634)"/>
  <path id="路径_201" data-name="路径 201" class="cls-9" d="M0,.014,1.19,0l0,.2L0,.217Z" transform="translate(41.035 271.005) rotate(-22.306)"/>
  <path id="路径_202" data-name="路径 202" class="cls-9" d="M0,.014,1.19,0l0,.2L0,.217Z" transform="translate(86.077 272.372) rotate(-22.306)"/>
  <path id="路径_135" data-name="路径 135" class="cls-9" d="M243.858,588.767l-2.176.923-.075-.188,2.176-.923Zm-4.352,1.845-2.176.923-.075-.189,2.176-.923Zm-4.352,1.845-2.176.923-.075-.188,2.176-.923ZM230.8,594.3l-2.176.923-.075-.188,2.176-.923Zm-4.353,1.845-2.176.923-.075-.188,2.176-.923Zm-4.352,1.846-2.176.923-.075-.188,2.176-.923Zm-4.352,1.845-2.176.923-.075-.188,2.176-.923Zm-4.352,1.846-2.176.923-.075-.188,2.176-.923Z" transform="translate(-159.875 -315.272)"/>
  <path id="路径_203" data-name="路径 203" class="cls-9" d="M0,.014,1.19,0l0,.2L0,.217Z" transform="translate(47.988 288.522) rotate(-22.306)"/>
  <path id="路径_204" data-name="路径 204" class="cls-9" d="M0,.014,1.19,0l0,.2L0,.217Z" transform="translate(68.044 289.701) rotate(-22.306)"/>
  <path id="路径_136" data-name="路径 136" class="cls-9" d="M228.59,619.719l-2.239.949-.075-.188,2.239-.949Zm-4.478,1.9-2.239.95-.075-.188,2.239-.949Zm-4.478,1.9-2.239.949-.075-.188,2.239-.95Z" transform="translate(-162.702 -328.868)"/>
  <path id="路径_205" data-name="路径 205" class="cls-9" d="M0,.014,1.19,0l0,.2L0,.217Z" transform="translate(51.278 296.81) rotate(-22.306)"/>
  <path id="路径_206" data-name="路径 206" class="cls-9" d="M0,.014,1.19,0l0,.2L0,.217Z" transform="translate(73.658 303.844) rotate(-22.306)"/>
  <path id="路径_137" data-name="路径 137" class="cls-9" d="M238.938,644.943l-2.239.949-.075-.188,2.239-.949Zm-4.478,1.9-2.239.949-.075-.188,2.239-.949Zm-4.478,1.9-2.239.949-.075-.188,2.239-.949Z" transform="translate(-167.436 -339.948)"/>
  <path id="路径_207" data-name="路径 207" class="cls-9" d="M0,.014,1.19,0l0,.2L0,.217Z" transform="translate(56.892 310.953) rotate(-22.306)"/>
  <path id="路径_138" data-name="路径 138" class="cls-4" d="M233.132,599.029,296.159,572.3a6.515,6.515,0,0,0,3.395-8.39l-12.734-32.082-.123.057L271.23,570.112l-11.471-4.957a1.445,1.445,0,0,0-1.321.085,1.625,1.625,0,0,0-.658.8l-8.106,20.03-8.387-3.624a1.476,1.476,0,0,0-1.954.829C239.278,583.415,234.106,596.529,233.132,599.029Z" transform="translate(-169.936 -290.345)"/>
  <path id="路径_139" data-name="路径 139" class="cls-5" d="M232.622,599.042l-.182-.079,6.486-16.029a1.657,1.657,0,0,1,2.191-.929l8.222,3.554,8.06-19.919a1.657,1.657,0,0,1,2.191-.929l11.306,4.887,15.546-38.422.182.078L271,569.864,259.512,564.9a1.461,1.461,0,0,0-1.933.82l-8.136,20.107-8.4-3.632a1.462,1.462,0,0,0-1.933.82Z" transform="translate(-169.619 -290.055)"/>
  <ellipse id="椭圆_105" data-name="椭圆 105" class="cls-5" cx="1.379" cy="1.425" rx="1.379" ry="1.425" transform="translate(67.804 287.918)"/>
  <ellipse id="椭圆_106" data-name="椭圆 106" class="cls-5" cx="1.379" cy="1.425" rx="1.379" ry="1.425" transform="translate(85.836 270.59)"/>
  <ellipse id="椭圆_107" data-name="椭圆 107" class="cls-5" cx="1.379" cy="1.425" rx="1.379" ry="1.425" transform="translate(113.915 237.799)"/>
  <path id="路径_140" data-name="路径 140" class="cls-6" d="M180.162,575.262a5.63,5.63,0,0,0,2.886-3.747,5.812,5.812,0,0,0-.927-4.693l4.1-41.383h-8.85l-3.255,40.409a5.825,5.825,0,0,0-1.021,7.486A5.4,5.4,0,0,0,180.162,575.262Z" transform="translate(-142.047 -287.535)"/>
  <ellipse id="椭圆_108" data-name="椭圆 108" class="cls-6" cx="12.521" cy="12.942" rx="12.521" ry="12.942" transform="translate(33.72 189.181)"/>
  <path id="路径_141" data-name="路径 141" class="cls-12" d="M196.535,534.564a2.3,2.3,0,0,1-2.207-1.738c-1-3.767-3.613-10.136-7.757-18.932a16.162,16.162,0,0,1-.386-12.821,15.4,15.4,0,0,1,9-8.83h0a14.719,14.719,0,0,1,11.785.737,15.538,15.538,0,0,1,7.7,9.249c3.212,10.409,3.057,21.558,2.841,25.868a2.356,2.356,0,0,1-1.8,2.195l-18.688,4.218A2.2,2.2,0,0,1,196.535,534.564Z" transform="translate(-147.937 -272.561)"/>
  <path id="路径_142" data-name="路径 142" class="cls-6" d="M137.081,666.9h6.25l2.974-24.917H137.08Z" transform="translate(-70.386 -282.011)"/>
  <path id="路径_143" data-name="路径 143" class="cls-7" d="M0,0H19.643V7.844H7.59A7.72,7.72,0,0,1,0,0H0Z" transform="translate(84.997 390.892) rotate(179.997)"/>
  <path id="路径_144" data-name="路径 144" class="cls-6" d="M21.882,654.39l5.477,3.112,14.22-20.353L33.5,632.555Z" transform="translate(-17.685 -277.867)"/>
  <path id="路径_145" data-name="路径 145" class="cls-7" d="M0,0,19.8.278,19.9,8.063,7.756,7.892A7.982,7.982,0,0,1,0,0H0Z" transform="translate(17.442 390.892) rotate(-151.199)"/>
  <path id="路径_146" data-name="路径 146" class="cls-7" d="M191.443,671.055a2.321,2.321,0,0,1-2.273-2.066l-7.817-62.254a1.3,1.3,0,0,0-1.026-1.125,1.261,1.261,0,0,0-1.354.658L146.4,667.353a2.273,2.273,0,0,1-2.826,1.072l-7.1-2.8a2.329,2.329,0,0,1-1.287-1.27,2.445,2.445,0,0,1-.021-1.839l22.566-57.295a1.877,1.877,0,0,0,.115-.454c3.056-24.45,10.833-36.884,13.144-40.113a1.887,1.887,0,0,0,.253-1.672l-.318-.985a2.431,2.431,0,0,1,.441-2.306c8.326-9.8,22.837-4.453,22.983-4.4l.073.028.046.064c16.272,23.064,10.255,97.976,8.884,112.759a2.325,2.325,0,0,1-2.108,2.134l-9.622.766C191.561,671.053,191.5,671.055,191.443,671.055Z" transform="translate(-125.039 -299.991)"/>
  <path id="路径_147" data-name="路径 147" class="cls-6" d="M263.762,485.093a5.723,5.723,0,0,0-.122.864l-21.9,13.058-5.323-3.167-5.675,7.678,8.9,6.554a3.973,3.973,0,0,0,4.893-.123l22.583-18.413a5.237,5.237,0,0,0,5.894-1.556,5.678,5.678,0,0,0,.678-6.248,5.306,5.306,0,0,0-5.415-2.866,5.42,5.42,0,0,0-4.51,4.221Z" transform="translate(-168.843 -267.938)"/>
  <path id="路径_148" data-name="路径 148" class="cls-12" d="M231.936,505.979l-7.078,9.481a2.246,2.246,0,0,1-3.469.2l-8.013-8.6a6.734,6.734,0,0,1-1.126-9.24,6.234,6.234,0,0,1,8.94-1.164l10.05,5.808a2.367,2.367,0,0,1,1.127,1.594,2.433,2.433,0,0,1-.431,1.924Z" transform="translate(-159.771 -274.283)"/>
  <path id="路径_149" data-name="路径 149" class="cls-12" d="M187.892,526.567l-11.4-2.128a2.3,2.3,0,0,1-1.568-1.128,2.441,2.441,0,0,1-.2-1.964l3.7-11.311a6.389,6.389,0,0,1,7.417-5.288,6.573,6.573,0,0,1,5.116,7.666l-.361,11.895a2.4,2.4,0,0,1-.85,1.768,2.239,2.239,0,0,1-1.851.49Z" transform="translate(-143.16 -278.399)"/>
  <path id="路径_150" data-name="路径 150" class="cls-7" d="M167.534,443.808c3.218,2.277,7.444,4.617,10.731,2.192a6.309,6.309,0,0,0,1.963-7.126c-1.574-4.652-5.9-6.7-10.033-8.27-5.376-2.041-11.229-3.664-16.778-2.2s-10.454,7.015-9.452,12.842c.806,4.686,5.083,8.586,4.476,13.3-.611,4.749-5.778,7.248-10.34,8.1s-9.666,1.121-12.944,4.508c-4.182,4.32-3.138,12.041.8,16.6s9.873,6.629,15.627,8.034c7.624,1.862,15.87,2.841,23.111-.25s12.876-11.41,10.778-19.211c-.886-3.3-2.973-6.08-4.99-8.791s-4.06-5.546-4.829-8.873a9.466,9.466,0,0,1,1.612-8.07,2.4,2.4,0,0,0,.3-2.733Z" transform="translate(-119.311 -244.663)"/>
</svg>
