<svg xmlns="http://www.w3.org/2000/svg" width="148.007" height="148.006" viewBox="0 0 148.007 148.006">
  <defs>
    <style>
      .cls-1 {
        fill: #ffbc42;
      }

      .cls-2 {
        fill: #fff;
      }
    </style>
  </defs>
  <g id="icon-loss" transform="translate(-45.83 -225.994)">
    <g id="组_152" data-name="组 152" transform="translate(45.831 225.994)">
      <path id="路径_246" data-name="路径 246" class="cls-1" d="M147.992,74c.74,45.933-28.057,74.7-73.99,73.99C28.069,148.7-.7,119.936.012,74-.7,28.07,28.069-.7,74,.013,119.935-.7,148.7,28.07,147.992,74Z" transform="translate(0 0)"/>
    </g>
    <g id="组_153" data-name="组 153" transform="translate(-147.719 -49.057)">
      <path id="路径_259" data-name="路径 259" class="cls-2" d="M277.984,374.36H227.1a4.571,4.571,0,0,1-3.211-1.331,4.424,4.424,0,0,1-1.3-3.18V316.126a4.489,4.489,0,0,1,4.514-4.51h78.312a4.639,4.639,0,0,1,4.614,4.4v39.752a20.918,20.918,0,0,0-13.881-3.17H273.788a2.006,2.006,0,1,0,0,4.011h12.329a20.257,20.257,0,0,0-8.134,17.738Zm-14.537-14.333a4.024,4.024,0,0,0,0-1.908,10.937,10.937,0,0,0-.1-1.8,15.689,15.689,0,0,0-.3-1.6,3.126,3.126,0,0,0-1.2-1.6,8.471,8.471,0,0,0-1.909-1,14.141,14.141,0,0,0-2.207-.7,10.435,10.435,0,0,1-2.108-.7,5.447,5.447,0,0,1-1.71-1,3.115,3.115,0,0,1-1.2-2.309,4.962,4.962,0,0,1,.1-1.2,7.911,7.911,0,0,1,.3-.8,2.222,2.222,0,0,1,.4-.6c.1-.2.308-.294.507-.5a3.1,3.1,0,0,0,.706-.509,4.648,4.648,0,0,0,1.094-1.7,3.119,3.119,0,0,0,.408-1.2,2.7,2.7,0,0,0,.706-.391,7.706,7.706,0,0,1,.5-.8,4.038,4.038,0,0,0,.4-1.311,1.994,1.994,0,0,0,0-1.1,4.615,4.615,0,0,0-.3-.7,1,1,0,0,0-.4-.5,16.366,16.366,0,0,0-.2-3.111,19.235,19.235,0,0,0-.7-2.808,6.911,6.911,0,0,0-1.511-2.8A7.509,7.509,0,0,0,252,325.245a7.836,7.836,0,0,0-4.116-1,11.166,11.166,0,0,0-1.8.1,6.218,6.218,0,0,0-1.909.509,7.211,7.211,0,0,0-3.52,2.906,10.457,10.457,0,0,0-1.193,2.6,14.858,14.858,0,0,0-.607,2.7c-.1,1.008-.1,2.006-.1,3.013a2.167,2.167,0,0,0-.5.8,2.008,2.008,0,0,0-.209.9,2.584,2.584,0,0,0,.2,1.2,4.7,4.7,0,0,0,.5,1c.2.2.3.4.507.5a2.166,2.166,0,0,0,.5.3,5.688,5.688,0,0,1,.4,1.2,4.977,4.977,0,0,0,.408,1.008,2.61,2.61,0,0,0,.607.793c.4.3.8.7,1.2,1.008a2.587,2.587,0,0,1,.6,1.4V347.3a2.972,2.972,0,0,1-.2,1,2.383,2.383,0,0,1-.6.91c-.3.294-.8.6-1.3,1a8.707,8.707,0,0,1-2.416,1c-.895.2-1.7.509-2.605.8a7.815,7.815,0,0,0-2.207,1.2,3.223,3.223,0,0,0-1.2,2.211,14.592,14.592,0,0,0-.1,4.109,5.082,5.082,0,0,0,.6,1.9,2.576,2.576,0,0,0,1.1.4c.6.1,1.3.3,2.207.4a23.337,23.337,0,0,0,2.814.4l3.112.294c1.094.108,2.108.108,3.112.205a25.018,25.018,0,0,0,2.605.1c.706,0,1.611,0,2.615-.1.994,0,2.009-.1,3.112-.2,1.1,0,2.108-.2,3.212-.294a26.382,26.382,0,0,0,2.913-.411c.895-.2,1.6-.294,2.207-.5.6-.1,1-.293,1.1-.5a2.8,2.8,0,0,0,.4-1.2Zm34.94-15.635a2.006,2.006,0,1,0,0-4.011h-24.6a2.006,2.006,0,1,0,0,4.011Zm0-12.328a2.006,2.006,0,1,0,0-4.011h-24.6a2.006,2.006,0,1,0,0,4.011Zm.308,27.2a13.887,13.887,0,0,1,12.737,8.316,13.075,13.075,0,0,1,1.084,5.293A13.885,13.885,0,0,1,288.9,382.51a14.018,14.018,0,0,1-2.963-4.344,13.331,13.331,0,0,1,0-10.576,13.658,13.658,0,0,1,12.757-8.316Zm6.055,15.556a2.208,2.208,0,0,0,1.531-.567,1.855,1.855,0,0,0,.626-1.438,1.7,1.7,0,0,0-.626-1.409,2.362,2.362,0,0,0-1.531-.489H292.62a2.372,2.372,0,0,0-1.551.489,1.7,1.7,0,0,0-.616,1.409,1.862,1.862,0,0,0,.616,1.438,2.208,2.208,0,0,0,1.541.558h12.131Z" transform="translate(0 0)"/>
    </g>
  </g>
</svg>
