<svg xmlns="http://www.w3.org/2000/svg" width="148.007" height="148.006" viewBox="0 0 148.007 148.006">
  <defs>
    <style>
      .cls-1 {
        fill: #38c1ff;
      }

      .cls-2 {
        fill: #fff;
      }
    </style>
  </defs>
  <g id="icon-ele-charge" transform="translate(-265.83 -35.994)">
    <path id="路径_256" data-name="路径 256" class="cls-1" d="M147.992,74c.74,45.933-28.057,74.7-73.99,73.99C28.069,148.7-.7,119.936.012,74-.7,28.07,28.069-.7,74,.013,119.935-.7,148.7,28.07,147.992,74Z" transform="translate(265.831 35.994)"/>
    <path id="路径_257" data-name="路径 257" class="cls-2" d="M250,228.979a31.292,31.292,0,0,1-15.333-26.7c0-17.46,14.787-31.613,33.029-31.613s33.029,14.153,33.029,31.613a31.292,31.292,0,0,1-15.333,26.7l-1.517,6.05a5.042,5.042,0,0,1-4.942,3.728H256.458a5.042,5.042,0,0,1-4.942-3.729L250,228.979Zm4.992,14.642H280.4a2.434,2.434,0,1,1,0,4.864H254.993a2.434,2.434,0,1,1,0-4.864Zm18.395-33.681a2.438,2.438,0,0,0,1.316-1.789,2.368,2.368,0,0,0-.719-2.077l-7.139-6.833,8.036-7.694a2.358,2.358,0,0,0,0-3.439,2.622,2.622,0,0,0-3.593,0l-8.981,8.6a2.474,2.474,0,0,0-.3.35,2.438,2.438,0,0,0-1.311,1.788,2.368,2.368,0,0,0,.717,2.074l7.139,6.836-8.036,7.694a2.358,2.358,0,0,0,0,3.439,2.622,2.622,0,0,0,3.593,0l8.981-8.6a2.506,2.506,0,0,0,.3-.35Z" transform="translate(72.138 -99.579)"/>
  </g>
</svg>
