<svg xmlns="http://www.w3.org/2000/svg" xmlns:xlink="http://www.w3.org/1999/xlink" width="90" height="90" viewBox="0 0 90 90">
  <defs>
    <style>
      .cls-1 {
        fill: url(#linear-gradient);
      }

      .cls-2 {
        fill: #fff;
      }
    </style>
    <linearGradient id="linear-gradient" x1="0.5" y1="0.28" x2="0.5" y2="1" gradientUnits="objectBoundingBox">
      <stop offset="0" stop-color="#8a39fc"/>
      <stop offset="1" stop-color="#c087fb"/>
    </linearGradient>
  </defs>
  <g id="icon-electric" transform="translate(-268 -260)">
    <rect id="矩形_4" data-name="矩形 4" class="cls-1" width="90" height="90" rx="19" transform="translate(268 260)"/>
    <path id="路径_15" data-name="路径 15" class="cls-2" d="M222.126,25.919,192.746,56.98,201.3,31.923a.445.445,0,0,0-.433-.584h-8.3a3.572,3.572,0,0,1-3.324-5.036L200.529,2.087A3.662,3.662,0,0,1,203.853,0h23.924L216.493,19.275a.447.447,0,0,0,.393.668h2.554A3.554,3.554,0,0,1,222.126,25.919Z" transform="translate(106.651 276.51)"/>
  </g>
</svg>
