<svg xmlns="http://www.w3.org/2000/svg" xmlns:xlink="http://www.w3.org/1999/xlink" width="90" height="90" viewBox="0 0 90 90">
  <defs>
    <style>
      .cls-1 {
        fill: url(#linear-gradient);
      }

      .cls-2 {
        fill: #fff;
      }
    </style>
    <linearGradient id="linear-gradient" x1="0.5" x2="0.5" y2="1" gradientUnits="objectBoundingBox">
      <stop offset="0" stop-color="#0f99fe"/>
      <stop offset="1" stop-color="#35c8f8"/>
    </linearGradient>
  </defs>
  <g id="icon-lesson" transform="translate(-117 -109)">
    <rect id="矩形_1" data-name="矩形 1" class="cls-1" width="90" height="90" rx="19" transform="translate(117 109)"/>
    <g id="组_3" data-name="组 3" transform="translate(0.795 62.968)">
      <path id="路径_10" data-name="路径 10" class="cls-2" d="M341.9,71.715a1.451,1.451,0,0,1-1.422-1.422V64.4a1.452,1.452,0,0,1,1.422-1.422h20.5A1.451,1.451,0,0,1,363.82,64.4v5.826a1.451,1.451,0,0,1-1.422,1.422H341.9Z" transform="translate(-190.928 0)"/>
      <path id="路径_11" data-name="路径 11" class="cls-2" d="M184.475,135.68h-8.462V140.4a1.976,1.976,0,0,1-1.977,1.977H148.408a2,2,0,0,1-1.977-1.977v-4.682h-8.462A2.287,2.287,0,0,0,135.68,138v46.576a2.287,2.287,0,0,0,2.289,2.289h46.576c1.006,0,2.185-.277,2.185-2.324V137.969A2.279,2.279,0,0,0,184.475,135.68Zm-27.224,33.189-6.8,6.763a1.676,1.676,0,0,1-2.428,0l-3.364-3.364a1.717,1.717,0,1,1,2.428-2.428l2.15,2.15,5.549-5.549a1.734,1.734,0,0,1,2.948,1.214A1.647,1.647,0,0,1,157.251,168.869Zm0-15.329-6.8,6.763a1.676,1.676,0,0,1-2.428,0l-3.364-3.364a1.717,1.717,0,1,1,2.428-2.428l2.15,2.15,5.549-5.549a1.734,1.734,0,0,1,2.948,1.214A1.647,1.647,0,0,1,157.251,153.54ZM174.9,173.482H161.17a1.882,1.882,0,0,1,0-3.745h13.7a1.859,1.859,0,0,1,1.7,1.873A1.83,1.83,0,0,1,174.9,173.482Zm0-15.051H161.17a1.882,1.882,0,0,1,0-3.745h13.7a1.859,1.859,0,0,1,1.7,1.873A1.83,1.83,0,0,1,174.9,158.43Z" transform="translate(0 -67.779)"/>
    </g>
  </g>
</svg>
