<svg xmlns="http://www.w3.org/2000/svg" width="148.007" height="148.006" viewBox="0 0 148.007 148.006">
  <defs>
    <style>
      .cls-1 {
        fill: #4ed89d;
      }

      .cls-2 {
        fill: #fff;
      }
    </style>
  </defs>
  <g id="icon-card" transform="translate(-45.83 -35.994)">
    <g id="组_151" data-name="组 151" transform="translate(45.831 35.994)">
      <path id="路径_246" data-name="路径 246" class="cls-1" d="M147.992,74c.74,45.933-28.057,74.7-73.99,73.99C28.069,148.7-.7,119.936.012,74-.7,28.07,28.069-.7,74,.013,119.935-.7,148.7,28.07,147.992,74Z" transform="translate(0 0)"/>
    </g>
    <path id="路径_255" data-name="路径 255" class="cls-2" d="M251.066,249.742h-80.4v-10.05a5.025,5.025,0,0,1,5.025-5.025h70.35a5.025,5.025,0,0,1,5.025,5.025v10.05Zm0,5.025v40.2a5.025,5.025,0,0,1-5.025,5.025h-70.35a5.025,5.025,0,0,1-5.025-5.025v-40.2h80.4Zm-67.837,17.587a2.512,2.512,0,1,0,0,5.025h20.1a2.512,2.512,0,1,0,0-5.025Z" transform="translate(-91.032 -157.332)"/>
  </g>
</svg>
