<svg xmlns="http://www.w3.org/2000/svg" width="112.212" height="112.212" viewBox="0 0 112.212 112.212">
  <defs>
    <style>
      .cls-1 {
        fill: #fff;
      }
    </style>
  </defs>
  <g id="组_233" data-name="组 233" transform="translate(0)">
    <rect id="矩形_110" data-name="矩形 110" class="cls-1" width="14.623" height="47.964" transform="translate(23.583 10.34) rotate(-45)"/>
    <rect id="矩形_111" data-name="矩形 111" class="cls-1" width="14.623" height="47.964" transform="translate(44.373 78.296) rotate(-45)"/>
    <rect id="矩形_112" data-name="矩形 112" class="cls-1" width="14.623" height="47.964" transform="translate(101.872 23.632) rotate(45)"/>
    <rect id="矩形_113" data-name="矩形 113" class="cls-1" width="14.623" height="47.964" transform="translate(33.916 44.324) rotate(45)"/>
    <g id="组_223" data-name="组 223" transform="translate(11.729 45.737) rotate(-45)">
      <rect id="矩形_114" data-name="矩形 114" class="cls-1" width="14.623" height="33.341" transform="translate(0 14.623) rotate(-90)"/>
      <rect id="矩形_115" data-name="矩形 115" class="cls-1" width="16.671" height="14.623" transform="translate(16.676 0)"/>
    </g>
    <g id="组_224" data-name="组 224" transform="translate(45.759 100.408) rotate(-135)">
      <rect id="矩形_114-2" data-name="矩形 114" class="cls-1" width="14.623" height="33.341" transform="translate(0 14.623) rotate(-90)"/>
      <rect id="矩形_115-2" data-name="矩形 115" class="cls-1" width="16.671" height="14.623" transform="translate(16.676 0)"/>
    </g>
    <g id="组_225" data-name="组 225" transform="translate(66.454 11.804) rotate(45)">
      <rect id="矩形_114-3" data-name="矩形 114" class="cls-1" width="14.623" height="33.341" transform="translate(0 14.623) rotate(-90)"/>
      <rect id="矩形_115-3" data-name="矩形 115" class="cls-1" width="16.671" height="14.623" transform="translate(16.676 0)"/>
    </g>
    <g id="组_226" data-name="组 226" transform="translate(100.483 66.475) rotate(135)">
      <rect id="矩形_114-4" data-name="矩形 114" class="cls-1" width="14.623" height="33.341" transform="translate(0 14.623) rotate(-90)"/>
      <rect id="矩形_115-4" data-name="矩形 115" class="cls-1" width="16.671" height="14.623" transform="translate(16.676 0)"/>
    </g>
  </g>
</svg>
