<svg xmlns="http://www.w3.org/2000/svg" width="258" height="258" viewBox="0 0 258 258">
  <defs>
    <style>
      .cls-1 {
        fill: #6a95f6;
      }

      .cls-2 {
        fill: #6590f8;
      }

      .cls-3 {
        fill: #6994fe;
      }

      .cls-4 {
        fill: #fff;
      }

      .cls-5 {
        fill: #e1724a;
      }

      .cls-6 {
        fill: #8579b6;
      }

      .cls-7 {
        fill: #93b778;
      }

      .cls-8 {
        fill: #36b9c7;
      }

      .cls-9 {
        fill: #b75a3b;
      }

      .cls-10 {
        fill: #87462c;
      }

      .cls-11 {
        fill: #2c919d;
      }

      .cls-12 {
        fill: #206c78;
      }

      .cls-13 {
        fill: #769362;
      }

      .cls-14 {
        fill: #586c46;
      }

      .cls-15 {
        fill: #6e6497;
      }

      .cls-16 {
        fill: #4e486c;
      }
    </style>
  </defs>
  <g id="组_232" data-name="组 232" transform="translate(-1332 -619)">
    <circle id="椭圆_134" data-name="椭圆 134" class="cls-1" cx="129" cy="129" r="129" transform="translate(1332 619)"/>
    <g id="组_231" data-name="组 231" transform="translate(-77 21)">
      <circle id="椭圆_133" data-name="椭圆 133" class="cls-2" cx="124" cy="124" r="124" transform="translate(1414 603)"/>
      <circle id="椭圆_132" data-name="椭圆 132" class="cls-3" cx="107" cy="107" r="107" transform="translate(1431 620)"/>
      <g id="组_229" data-name="组 229" transform="translate(10.259 307.259)">
        <rect id="矩形_117" data-name="矩形 117" class="cls-4" width="154" height="154" rx="77" transform="translate(1450.741 342.741)"/>
        <g id="组_228" data-name="组 228" transform="translate(1471.635 363.635)">
          <rect id="矩形_110" data-name="矩形 110" class="cls-5" width="14.623" height="47.964" transform="translate(23.583 10.34) rotate(-45)"/>
          <rect id="矩形_111" data-name="矩形 111" class="cls-6" width="14.623" height="47.964" transform="translate(44.373 78.296) rotate(-45)"/>
          <rect id="矩形_112" data-name="矩形 112" class="cls-7" width="14.623" height="47.964" transform="translate(101.872 23.632) rotate(45)"/>
          <rect id="矩形_113" data-name="矩形 113" class="cls-8" width="14.623" height="47.964" transform="translate(33.916 44.324) rotate(45)"/>
          <g id="组_223" data-name="组 223" transform="translate(11.729 45.737) rotate(-45)">
            <rect id="矩形_114" data-name="矩形 114" class="cls-9" width="14.623" height="33.341" transform="translate(0 14.623) rotate(-90)"/>
            <rect id="矩形_115" data-name="矩形 115" class="cls-10" width="16.671" height="14.623" transform="translate(16.676 0)"/>
          </g>
          <g id="组_224" data-name="组 224" transform="translate(45.759 100.408) rotate(-135)">
            <rect id="矩形_114-2" data-name="矩形 114" class="cls-11" width="14.623" height="33.341" transform="translate(0 14.623) rotate(-90)"/>
            <rect id="矩形_115-2" data-name="矩形 115" class="cls-12" width="16.671" height="14.623" transform="translate(16.676 0)"/>
          </g>
          <g id="组_225" data-name="组 225" transform="translate(66.454 11.804) rotate(45)">
            <rect id="矩形_114-3" data-name="矩形 114" class="cls-13" width="14.623" height="33.341" transform="translate(0 14.623) rotate(-90)"/>
            <rect id="矩形_115-3" data-name="矩形 115" class="cls-14" width="16.671" height="14.623" transform="translate(16.676 0)"/>
          </g>
          <g id="组_226" data-name="组 226" transform="translate(100.483 66.475) rotate(135)">
            <rect id="矩形_114-4" data-name="矩形 114" class="cls-15" width="14.623" height="33.341" transform="translate(0 14.623) rotate(-90)"/>
            <rect id="矩形_115-4" data-name="矩形 115" class="cls-16" width="16.671" height="14.623" transform="translate(16.676 0)"/>
          </g>
        </g>
      </g>
    </g>
  </g>
</svg>
