<svg xmlns="http://www.w3.org/2000/svg" width="46.849" height="38.865" viewBox="0 0 46.849 38.865">
  <defs>
    <style>
      .cls-1 {
        fill: #5a5874;
      }

      .cls-2 {
        fill: #4a4864;
      }

      .cls-3 {
        fill: #fff;
      }

      .cls-4 {
        fill: #3f3d56;
      }

      .cls-5 {
        fill: #4695f5;
      }

      .cls-6 {
        fill: #ecced1;
      }

      .cls-7 {
        fill: none;
        stroke: #e1e7ee;
        stroke-miterlimit: 10;
        stroke-width: 2px;
      }
    </style>
  </defs>
  <g id="undraw_elements_cipa" transform="translate(-593.707 -504.133)">
    <ellipse id="椭圆_29" data-name="椭圆 29" class="cls-1" cx="22.979" cy="3.126" rx="22.979" ry="3.126" transform="translate(594.598 536.745)"/>
    <circle id="椭圆_30" data-name="椭圆 30" class="cls-2" cx="10.678" cy="10.678" r="10.678" transform="translate(607.169 513.175)"/>
    <rect id="矩形_24" data-name="矩形 24" class="cls-2" width="3.244" height="5.812" transform="translate(622.713 538.047) rotate(180)"/>
    <rect id="矩形_25" data-name="矩形 25" class="cls-2" width="3.244" height="5.812" transform="translate(616.225 538.047) rotate(180)"/>
    <ellipse id="椭圆_31" data-name="椭圆 31" class="cls-2" cx="2.703" cy="1.014" rx="2.703" ry="1.014" transform="translate(611.08 539.129) rotate(-30)"/>
    <ellipse id="椭圆_32" data-name="椭圆 32" class="cls-2" cx="2.703" cy="1.014" rx="2.703" ry="1.014" transform="translate(617.433 539.129) rotate(-30)"/>
    <circle id="椭圆_33" data-name="椭圆 33" class="cls-3" cx="3.65" cy="3.65" r="3.65" transform="translate(613.927 517.501)"/>
    <circle id="椭圆_34" data-name="椭圆 34" class="cls-4" cx="1.217" cy="1.217" r="1.217" transform="translate(615.117 518.38)"/>
    <path id="路径_77" data-name="路径 77" class="cls-5" d="M816.284,570.36c.862-3.862-1.894-7.763-6.156-8.715s-8.416,1.407-9.279,5.269,1.962,5.286,6.225,6.237S815.422,574.221,816.284,570.36Z" transform="translate(-188.078 -56.436)"/>
    <ellipse id="椭圆_35" data-name="椭圆 35" class="cls-2" cx="1.676" cy="5.339" rx="1.676" ry="5.339" transform="translate(602.923 519.624) rotate(-66.829)"/>
    <ellipse id="椭圆_36" data-name="椭圆 36" class="cls-2" cx="1.676" cy="5.339" rx="1.676" ry="5.339" transform="translate(622.928 526.788) rotate(-66.829)"/>
    <rect id="矩形_26" data-name="矩形 26" class="cls-6" width="4.866" height="4.866" transform="translate(599.843 513.784)"/>
    <rect id="矩形_27" data-name="矩形 27" class="cls-7" width="4.866" height="4.866" transform="translate(594.707 505.133)"/>
    <path id="路径_78" data-name="路径 78" class="cls-3" d="M824.067,725.058a2.433,2.433,0,1,1-4.866,0c0-1.344,1.089-1.622,2.433-1.622S824.067,723.714,824.067,725.058Z" transform="translate(-204.084 -196.541)"/>
  </g>
</svg>
