<svg xml:space="preserve" style="enable-background:new 0 0 1500 1500;" viewBox="0 0 1500 1500" y="0px" x="0px" xmlns:xlink="http://www.w3.org/1999/xlink" xmlns="http://www.w3.org/2000/svg" id="图层_1" version="1.1">
<style type="text/css">
	.st0{fill:#FFFFFF;}
	.st1{fill:url(#SVGID_1_);}
	.st2{fill:#D6DFFD;}
	.st3{fill:url(#SVGID_2_);}
	.st4{fill:url(#SVGID_3_);}
	.st5{fill:#F0F6FF;}
	.st6{fill:url(#SVGID_4_);}
	.st7{fill:url(#SVGID_5_);}
	.st8{fill:url(#SVGID_6_);}
	.st9{fill:url(#SVGID_7_);}
	.st10{fill:url(#SVGID_8_);}
	.st11{fill:url(#SVGID_9_);}
	.st12{fill:url(#SVGID_10_);}
	.st13{fill:url(#SVGID_11_);}
	.st14{fill:url(#SVGID_12_);}
	.st15{fill:url(#SVGID_13_);}
	.st16{fill:#7F9AEF;}
	.st17{fill:url(#SVGID_14_);}
</style>
<rect height="1500" width="1500" class="st0" y="2.8" x="-2"></rect>
<linearGradient y2="352.8949" x2="740.0818" y1="1451.2972" x1="757.9711" gradientUnits="userSpaceOnUse" id="SVGID_1_">
	<stop style="stop-color:#FFFFFF;stop-opacity:0" offset="0"></stop>
	<stop style="stop-color:#D9E2FF" offset="1"></stop>
</linearGradient>
<polygon points="196.8,1310.2 196.8,430.4 298.7,430.4 298.7,351.3 430.5,351.3 430.5,514 496.4,514 496.4,640.6 
	598.2,640.6 598.2,221.3 622.2,221.3 622.2,152.8 834.9,152.8 834.9,221.3 873.8,221.3 873.8,809.3 936.7,809.3 936.7,337.9 
	1014.6,463.3 1014.6,668.5 1080.5,668.5 1080.5,502.4 1116.4,502.4 1116.4,367.9 1299.2,367.9 1299.2,1310.2" class="st1"></polygon>
<ellipse ry="56.6" rx="376.4" cy="1296.2" cx="748" class="st2"></ellipse>
<linearGradient y2="954.4006" x2="979.889" y1="954.4006" x1="538.511" gradientUnits="userSpaceOnUse" id="SVGID_2_">
	<stop style="stop-color:#7D95E7" offset="0"></stop>
	<stop style="stop-color:#7489E2" offset="1"></stop>
</linearGradient>
<polygon points="979.9,1022.9 538.5,1022.9 569.3,885.9 949.1,885.9" class="st3"></polygon>
<linearGradient y2="1428.3073" x2="759.06" y1="109.6906" x1="759.06" gradientUnits="userSpaceOnUse" id="SVGID_3_">
	<stop style="stop-color:#A4C4FD" offset="0.5076"></stop>
	<stop style="stop-color:#5D6ED5" offset="1"></stop>
</linearGradient>
<rect height="401.6" width="379.5" class="st4" y="886.1" x="569.3"></rect>
<linearGradient y2="1003.3565" x2="778.384" y1="1003.3565" x1="755.7301" gradientUnits="userSpaceOnUse" id="SVGID_4_">
	<stop style="stop-color:#9BBDF9" offset="0"></stop>
	<stop style="stop-color:#D9E5FC" offset="1"></stop>
</linearGradient>
<circle r="11.3" cy="1003.4" cx="767.1" class="st6"></circle>
<linearGradient y2="971.2081" x2="744.0505" y1="971.2081" x1="717.6209" gradientUnits="userSpaceOnUse" id="SVGID_5_">
	<stop style="stop-color:#9BBDF9" offset="0"></stop>
	<stop style="stop-color:#D9E5FC" offset="1"></stop>
</linearGradient>
<circle r="13.2" cy="971.2" cx="730.8" class="st7"></circle>
<linearGradient y2="922.256" x2="725.2863" y1="922.256" x1="692.6954" gradientUnits="userSpaceOnUse" id="SVGID_6_">
	<stop style="stop-color:#9BBDF9" offset="0"></stop>
	<stop style="stop-color:#D9E5FC" offset="1"></stop>
</linearGradient>
<circle r="16.3" cy="922.3" cx="709" class="st8"></circle>
<linearGradient y2="864.9021" x2="744.6417" y1="864.9021" x1="705.8272" gradientUnits="userSpaceOnUse" id="SVGID_7_">
	<stop style="stop-color:#9BBDF9" offset="0"></stop>
	<stop style="stop-color:#D9E5FC" offset="1"></stop>
</linearGradient>
<circle r="19.4" cy="864.9" cx="725.2" class="st9"></circle>
<g>
	<linearGradient y2="793.6234" x2="741.9106" y1="622.862" x1="846.4857" gradientUnits="userSpaceOnUse" id="SVGID_8_">
		<stop style="stop-color:#9BBDF9" offset="0"></stop>
		<stop style="stop-color:#D9E5FC" offset="1"></stop>
	</linearGradient>
	<polygon points="861.9,589.7 661.7,717.6 848.6,826.4" class="st10"></polygon>
	<polygon points="729.8,810.8 725.1,752.9 862,589.5 781.7,788.9" class="st16"></polygon>
</g>
<linearGradient y2="1476.4568" x2="759.0667" y1="1074.6565" x1="759.0667" gradientUnits="userSpaceOnUse" id="SVGID_9_">
	<stop style="stop-color:#A4C4FD" offset="0"></stop>
	<stop style="stop-color:#5D6ED5" offset="1"></stop>
</linearGradient>
<path d="M943.1,1286.8H575c-20.3,0-36.7-16.4-36.7-36.7v-227.5h441.6v227.5C979.9,1270.4,963.4,1286.8,943.1,1286.8z" class="st11"></path>
<path d="M863.7,1112.5h-210c-4.2,0-7.6-3.4-7.6-7.6l0,0c0-4.2,3.4-7.6,7.6-7.6h210c4.2,0,7.6,3.4,7.6,7.6l0,0
	C871.2,1109.1,867.8,1112.5,863.7,1112.5z" class="st0"></path>
<path d="M828.4,1160H653.6c-4.2,0-7.6-3.4-7.6-7.6l0,0c0-4.2,3.4-7.6,7.6-7.6h174.8c4.2,0,7.6,3.4,7.6,7.6l0,0
	C835.9,1156.6,832.5,1160,828.4,1160z" class="st0"></path>
<path d="M759.5,1207.7H653.6c-4.2,0-7.6-3.4-7.6-7.6v-0.6c0-4.2,3.4-7.6,7.6-7.6h105.9c4.2,0,7.6,3.4,7.6,7.6v0.6
	C767,1204.3,763.6,1207.7,759.5,1207.7z" class="st0"></path>
</svg>
