<svg viewBox="0 0 359.66 303.96" xmlns:xlink="http://www.w3.org/1999/xlink" xmlns="http://www.w3.org/2000/svg"><defs><style>.cls-1,.cls-36{opacity:0.46;}.cls-2,.cls-36{fill:#e1f3fc;}.cls-3{fill:url(#未命名的渐变_64);}.cls-4{fill:#cce8f8;}.cls-35,.cls-5{fill:#fff;}.cls-6{fill:#3b7ebd;}.cls-7{fill:url(#未命名的渐变_62);}.cls-8{fill:url(#未命名的渐变_62-2);}.cls-9{fill:url(#未命名的渐变_62-3);}.cls-10{fill:url(#未命名的渐变_61);}.cls-11{fill:url(#未命名的渐变_62-4);}.cls-12{fill:#2f5f96;}.cls-13{stroke:#fff;stroke-width:0.74px;fill:url(#未命名的渐变_62-5);}.cls-14{fill:url(#未命名的渐变_62-6);}.cls-15{fill:url(#未命名的渐变_62-7);}.cls-16{fill:url(#未命名的渐变_62-8);}.cls-17{fill:url(#未命名的渐变_62-9);}.cls-18{fill:url(#未命名的渐变_62-10);}.cls-19{fill:url(#未命名的渐变_61-2);}.cls-20{fill:url(#未命名的渐变_61-3);}.cls-21{fill:#fcdfd8;}.cls-22{fill:url(#未命名的渐变_63);}.cls-23{fill:url(#未命名的渐变_63-2);}.cls-24{fill:#2a2e6c;}.cls-25{fill:#222357;}.cls-26{fill:#ebbeb8;}.cls-27{fill:url(#未命名的渐变_63-3);}.cls-28{fill:url(#未命名的渐变_63-4);}.cls-29{stroke:#73a9d3;stroke-width:1.12px;fill:url(#未命名的渐变_62-11);}.cls-30{fill:#bc89ac;}.cls-31{fill:#9f7193;}.cls-32{fill:url(#未命名的渐变_61-4);}.cls-33{fill:#a5d9f5;}.cls-34{fill:url(#未命名的渐变_60);}.cls-35{opacity:0.68;}.cls-35,.cls-36{isolation:isolate;}</style><linearGradient gradientUnits="userSpaceOnUse" gradientTransform="matrix(683.23, 0, 0, -479.73, -247535.68, 148593.04)" y2="309.47" x2="362.86" y1="309.47" x1="362.47" id="未命名的渐变_64"><stop stop-color="#1b75ba" offset="0"></stop><stop stop-opacity="0" stop-color="#26a7df" offset="0.89"></stop></linearGradient><linearGradient gradientUnits="userSpaceOnUse" gradientTransform="matrix(180.14, 0, 0, -201.16, -64404.73, 62181.86)" y2="308.36" x2="359.28" y1="308.36" x1="358.9" id="未命名的渐变_62"><stop stop-color="#26a7df" offset="0.06"></stop><stop stop-opacity="0" stop-color="#28aae1" offset="1"></stop></linearGradient><linearGradient xlink:href="#未命名的渐变_62" gradientTransform="matrix(127.3, 0, 0, -125, -45192.39, 38528.2)" y2="307.05" x2="357.38" y1="307.05" x1="357.01" id="未命名的渐变_62-2"></linearGradient><linearGradient xlink:href="#未命名的渐变_62" gradientTransform="matrix(47.09, 0, 0, -46.24, -15942.06, 14128.4)" y2="302" x2="345.23" y1="302" x1="344.85" id="未命名的渐变_62-3"></linearGradient><linearGradient gradientUnits="userSpaceOnUse" gradientTransform="matrix(130.81, 0, 0, -306.9, -46765.77, 94910.89)" y2="308.88" x2="358.98" y1="308.88" x1="358.61" id="未命名的渐变_61"><stop stop-color="#26a7df" offset="0.06"></stop><stop stop-opacity="0" stop-color="#26a7df" offset="1"></stop></linearGradient><linearGradient xlink:href="#未命名的渐变_62" gradientTransform="matrix(157.47, 0, 0, -337.13, -56480.64, 104309.17)" y2="309.04" x2="359.89" y1="309.04" x1="359.52" id="未命名的渐变_62-4"></linearGradient><linearGradient xlink:href="#未命名的渐变_62" gradientTransform="matrix(50.85, 0, 0, -61.82, -17710.85, 18747.88)" y2="301.92" x2="351.59" y1="301.92" x1="351.21" id="未命名的渐变_62-5"></linearGradient><linearGradient xlink:href="#未命名的渐变_62" gradientTransform="matrix(50.85, 0, 0, -61.82, -17643.96, 18761.06)" y2="302.05" x2="350.76" y1="302.05" x1="350.39" id="未命名的渐变_62-6"></linearGradient><linearGradient xlink:href="#未命名的渐变_62" gradientTransform="matrix(50.85, 0, 0, -61.82, -17710.85, 18822.98)" y2="302.68" x2="351.59" y1="302.68" x1="351.21" id="未命名的渐变_62-7"></linearGradient><linearGradient xlink:href="#未命名的渐变_62" gradientTransform="matrix(50.85, 0, 0, -61.82, -17643.96, 18836.16)" y2="302.81" x2="350.76" y1="302.81" x1="350.39" id="未命名的渐变_62-8"></linearGradient><linearGradient xlink:href="#未命名的渐变_62" gradientTransform="matrix(50.85, 0, 0, -61.82, -17710.85, 18897.98)" y2="303.44" x2="351.59" y1="303.44" x1="351.21" id="未命名的渐变_62-9"></linearGradient><linearGradient xlink:href="#未命名的渐变_62" gradientTransform="matrix(50.85, 0, 0, -61.82, -17643.96, 18911.34)" y2="303.58" x2="350.76" y1="303.58" x1="350.39" id="未命名的渐变_62-10"></linearGradient><linearGradient xlink:href="#未命名的渐变_61" gradientTransform="matrix(375.12, 0, 0, -78.96, -135376.08, 24108.51)" y2="304.1" x2="361.77" y1="304.1" x1="361.4" id="未命名的渐变_61-2"></linearGradient><linearGradient xlink:href="#未命名的渐变_61" gradientTransform="matrix(375.12, 0, 0, -101.9, -135376.08, 31217.61)" y2="305.45" x2="361.77" y1="305.45" x1="361.4" id="未命名的渐变_61-3"></linearGradient><linearGradient gradientUnits="userSpaceOnUse" gradientTransform="matrix(33.18, 0, 0, -35.8, -11405.96, 11032.95)" y2="302.12" x2="347.28" y1="302.12" x1="346.91" id="未命名的渐变_63"><stop stop-color="#204496" offset="0.11"></stop><stop stop-opacity="0" stop-color="#204496" offset="1"></stop></linearGradient><linearGradient xlink:href="#未命名的渐变_63" gradientTransform="matrix(27.12, 0, 0, -29.92, -9159.71, 9158.66)" y2="299.47" x2="342.66" y1="299.47" x1="342.29" id="未命名的渐变_63-2"></linearGradient><linearGradient xlink:href="#未命名的渐变_63" gradientTransform="matrix(29.23, 0, 0, -41, -9618.21, 12828.57)" y2="305.95" x2="337.52" y1="305.95" x1="337.15" id="未命名的渐变_63-3"></linearGradient><linearGradient xlink:href="#未命名的渐变_63" gradientTransform="matrix(30.23, 0, 0, -38.05, -10000.42, 11896.32)" y2="305.31" x2="338.78" y1="305.31" x1="338.4" id="未命名的渐变_63-4"></linearGradient><linearGradient xlink:href="#未命名的渐变_62" gradientTransform="matrix(115.03, 0, 0, -184.84, -40773.81, 57231.02)" y2="308.58" x2="356.92" y1="308.58" x1="356.55" id="未命名的渐变_62-11"></linearGradient><linearGradient xlink:href="#未命名的渐变_61" gradientTransform="matrix(217.46, 0, 0, -113.42, -78107.92, 34657.31)" y2="305.19" x2="360.45" y1="305.19" x1="360.08" id="未命名的渐变_61-4"></linearGradient><linearGradient gradientUnits="userSpaceOnUse" gradientTransform="matrix(95.9, 0, 0, -84.66, -33949.04, 25741.09)" y2="303.51" x2="356.4" y1="303.51" x1="356.03" id="未命名的渐变_60"><stop stop-color="#39aee1" offset="0"></stop><stop stop-color="#2a2e6c" offset="1"></stop></linearGradient></defs><g id="图层_2"><g id="图层_1-2"><g id="Page-1"><g id="workingtogetherV2-01"><g class="cls-1" id="Element-2"><path d="M111.69,78.59l-78.18,45a4.44,4.44,0,0,1-6.66-3.85V95.55a4.44,4.44,0,0,1,2.23-3.85l78.17-45a4.44,4.44,0,0,1,6.66,3.85V74.73A4.48,4.48,0,0,1,111.69,78.59Z" class="cls-2" id="Path"></path><path d="M84.84,137.23l-78.18,45A4.44,4.44,0,0,1,0,178.39V154.2a4.46,4.46,0,0,1,2.23-3.86l78.17-45a4.44,4.44,0,0,1,6.66,3.85v24.2A4.45,4.45,0,0,1,84.84,137.23Z" class="cls-2" id="Path-2"></path><path d="M140.27,147.85l-78.17,45A4.45,4.45,0,0,1,55.43,189v-24.2A4.44,4.44,0,0,1,57.66,161l78.17-45a4.45,4.45,0,0,1,6.67,3.86V144A4.46,4.46,0,0,1,140.27,147.85Z" class="cls-2" id="Path-3"></path><ellipse transform="translate(-0.28 0.14) rotate(-0.07)" ry="15.51" rx="42.07" cy="218.58" cx="109.99" class="cls-2" id="Oval"></ellipse><ellipse transform="translate(-0.37 0.32) rotate(-0.07)" ry="15.51" rx="42.07" cy="284.37" cx="243.03" class="cls-2" id="Oval-2"></ellipse></g><g id="Body"><path d="M348.13,73.3,125.33,38.78a13.58,13.58,0,0,0-8.73,1.58l-.69.41L105.24,47.2l5.1.71a13.44,13.44,0,0,0-.7,4.32V158.81A13.61,13.61,0,0,0,120.8,172.2L343.48,213l-.41,4.3,9.22-5.57a13.59,13.59,0,0,0,7.37-12.09V86.75A13.61,13.61,0,0,0,348.13,73.3Z" class="cls-3" id="Path-4"></path><g id="Group"><path d="M335.41,218.59a13,13,0,0,1-2.32-.21l-222.8-40.79A12.67,12.67,0,0,1,99.9,165.12V58.55a12.68,12.68,0,0,1,12.65-12.69,12,12,0,0,1,2,.16l222.8,34.51a12.61,12.61,0,0,1,10.74,12.53V205.91A12.68,12.68,0,0,1,335.41,218.59Z" class="cls-4" id="Path-5"></path><path d="M112.55,46.79a11.17,11.17,0,0,1,1.82.15L337.18,81.45a11.76,11.76,0,0,1,9.95,11.61V205.91a11.75,11.75,0,0,1-11.72,11.75,11.94,11.94,0,0,1-2.15-.19l-222.8-40.79a11.76,11.76,0,0,1-9.63-11.56V58.55a11.75,11.75,0,0,1,11.72-11.76h0m0-1.86A13.62,13.62,0,0,0,99,58.55V165.12a13.62,13.62,0,0,0,11.16,13.39L332.93,219.3a13.94,13.94,0,0,0,2.48.22A13.61,13.61,0,0,0,349,205.91V93.06a13.62,13.62,0,0,0-11.53-13.45L114.66,45.1A13.84,13.84,0,0,0,112.55,44.93Z" class="cls-5" id="Shape"></path></g></g><g id="Gears"><path d="M315.47,127.49v48.39l-49.16-9a7,7,0,0,1-5.73-6.89V113.1l48.94,7.47A7,7,0,0,1,315.47,127.49Z" class="cls-6" id="Path-6"></path><path d="M315.47,127.49v52.8a7,7,0,0,1-8.27,6.88l-53.08-9.78a7,7,0,0,1-5.73-6.88V119.38a7,7,0,0,1,8.05-6.92l4.14.64,48.94,7.47A7,7,0,0,1,315.47,127.49Z" class="cls-7" id="Path-7"></path><g id="Group-2"><path d="M302.62,147.13l-.77-4.38a3.4,3.4,0,0,0-3.21-2.72l-1.05.36c-1.14,0-1.61-1.08-2.2-2.14-.19-.35-.4-.69-.61-1a2.62,2.62,0,0,1,0-3.07l.22-.27a2.8,2.8,0,0,0-.68-3.85l-3.64-3.1a2.72,2.72,0,0,0-3.85,0l-.22.28a2.54,2.54,0,0,1-3,.54c-.36-.15-.73-.29-1.1-.42a3.46,3.46,0,0,1-2.22-2.56l-.07-.38a3.4,3.4,0,0,0-3.21-2.73h-4.37a2.23,2.23,0,0,0-2.25,2.73l.07.38a2.24,2.24,0,0,1-1.33,2.56c-.32.13-.64.27-1,.42a3,3,0,0,1-3.16-.54l-.32-.28a2.73,2.73,0,0,0-3.86,0l-1.27,1.55L258.33,130a2.8,2.8,0,0,0,.68,3.85l.32.27a3.06,3.06,0,0,1,1.08,3.07c-.09.34-.17.68-.24,1a2.21,2.21,0,0,1-2.24,1.78h-.39a2.22,2.22,0,0,0-2.24,2.72l.77,4.38a3.4,3.4,0,0,0,3.21,2.72h.38a3.41,3.41,0,0,1,2.87,1.78q.29.52.6,1a2.62,2.62,0,0,1,0,3.07l-.23.28a2.82,2.82,0,0,0,.68,3.85l1.82,1.55,1.82,1.54a2.71,2.71,0,0,0,3.86,0l.22-.27a2.53,2.53,0,0,1,3-.55c.37.16.73.3,1.1.43a3.43,3.43,0,0,1,2.23,2.55l.07.39a3.4,3.4,0,0,0,3.21,2.72h4.37a2.21,2.21,0,0,0,2.24-2.72l-.06-.39a2.23,2.23,0,0,1,1.32-2.55,10.19,10.19,0,0,0,.95-.43,3,3,0,0,1,3.17.55l.32.27a2.7,2.7,0,0,0,3.85,0l2.55-3.09a2.81,2.81,0,0,0-.68-3.85l-.32-.28a3.08,3.08,0,0,1-1.09-3.07c.1-.33.18-.67.25-1a2.2,2.2,0,0,1,2.24-1.78h.38A2.23,2.23,0,0,0,302.62,147.13Zm-14.51-.32a7.77,7.77,0,0,1-.73,3,7,7,0,0,1-2.18,2.64,7.31,7.31,0,0,1-2.82,1.26,8.34,8.34,0,0,1-1.83.2,9.46,9.46,0,0,1-1.91-.2,10.56,10.56,0,0,1-3.26-1.26,11.44,11.44,0,0,1-1.67-1.18,11.69,11.69,0,0,1-1.44-1.46,11.25,11.25,0,0,1-1.8-3,10.18,10.18,0,0,1-.52-1.87,8.6,8.6,0,0,1-.14-1.87,7.77,7.77,0,0,1,.73-3,6.71,6.71,0,0,1,.93-1.46,6.93,6.93,0,0,1,1.24-1.18,7.33,7.33,0,0,1,2.82-1.27,8.5,8.5,0,0,1,1.84-.2,9.29,9.29,0,0,1,1.9.2,10.54,10.54,0,0,1,3.27,1.27,12,12,0,0,1,1.67,1.18,11.76,11.76,0,0,1,3.24,4.5,10,10,0,0,1,.52,1.87A9.22,9.22,0,0,1,288.11,146.81Z" class="cls-8" id="Shape-2"></path><g id="Shape-3"><path d="M277.05,172.73a3,3,0,0,1-2.84-2.41l-.06-.39a3.83,3.83,0,0,0-2.47-2.84l-1.08-.41a3.36,3.36,0,0,0-1.34-.28,2.63,2.63,0,0,0-2.07.93l-.22.27a1.89,1.89,0,0,1-1.5.66,2.85,2.85,0,0,1-1.83-.71L260,164.46a2.45,2.45,0,0,1-.63-3.33l.22-.28a3,3,0,0,0,0-3.5c-.21-.33-.41-.67-.6-1a3.76,3.76,0,0,0-3.19-2h-.38a3,3,0,0,1-2.84-2.41l-.77-4.38a1.94,1.94,0,0,1,.38-1.64,1.91,1.91,0,0,1,1.49-.65h.39a2.57,2.57,0,0,0,2.6-2.07c.07-.34.15-.68.24-1a3.43,3.43,0,0,0-1.2-3.46l-.32-.27a2.45,2.45,0,0,1-.64-3.33l2.55-3.09a1.88,1.88,0,0,1,1.5-.67,2.85,2.85,0,0,1,1.83.71l.32.27a3.55,3.55,0,0,0,2.3.89,2.89,2.89,0,0,0,1.27-.29c.3-.15.61-.29.92-.41a2.63,2.63,0,0,0,1.56-3l-.07-.38a2,2,0,0,1,.39-1.64,1.89,1.89,0,0,1,1.49-.65h4.37a3,3,0,0,1,2.84,2.42l.07.38a3.78,3.78,0,0,0,2.47,2.84l1.08.42a3.53,3.53,0,0,0,1.33.28,2.61,2.61,0,0,0,2.07-.93l.23-.27a1.88,1.88,0,0,1,1.5-.67,2.82,2.82,0,0,1,1.82.71l3.64,3.1a2.44,2.44,0,0,1,.63,3.33l-.22.27a3,3,0,0,0,0,3.51c.21.33.41.67.59,1a3.76,3.76,0,0,0,3.2,2h.38a3,3,0,0,1,2.84,2.42l.77,4.37a2,2,0,0,1-.39,1.64,1.89,1.89,0,0,1-1.49.65h-.38a2.59,2.59,0,0,0-2.61,2.08c-.07.33-.15.67-.24,1a3.44,3.44,0,0,0,1.21,3.45l.32.27a2.46,2.46,0,0,1,.63,3.34l-2.55,3.09a1.87,1.87,0,0,1-1.49.66,2.85,2.85,0,0,1-1.83-.71l-.32-.27a3.58,3.58,0,0,0-2.31-.88,2.83,2.83,0,0,0-1.26.28q-.45.23-.93.42a2.6,2.6,0,0,0-1.55,3l.07.39a2,2,0,0,1-.39,1.63,1.89,1.89,0,0,1-1.49.65Zm-3.5-32.28a9.41,9.41,0,0,0-1.92.2,7.49,7.49,0,0,0-4.27,2.58,7.53,7.53,0,0,0-1,1.53,8.17,8.17,0,0,0-.76,3.19,9.2,9.2,0,0,0,.14,2,10.59,10.59,0,0,0,.54,1.94,11.45,11.45,0,0,0,1.87,3.14,11.74,11.74,0,0,0,1.48,1.51,12.41,12.41,0,0,0,1.72,1.22,11.13,11.13,0,0,0,3.38,1.31,10.31,10.31,0,0,0,2,.2,8.67,8.67,0,0,0,1.91-.21,7.58,7.58,0,0,0,3-1.33,7.41,7.41,0,0,0,1.32-1.24,7.78,7.78,0,0,0,1-1.53,8,8,0,0,0,.76-3.19,9.18,9.18,0,0,0-.13-1.95,10.63,10.63,0,0,0-.55-1.94,11.62,11.62,0,0,0-1.86-3.15,13.2,13.2,0,0,0-1.49-1.5,12.31,12.31,0,0,0-1.71-1.22,11.23,11.23,0,0,0-3.38-1.31A10.39,10.39,0,0,0,273.55,140.45Z" class="cls-4"></path><path d="M273.22,127.3a2.66,2.66,0,0,1,2.47,2.11l.07.39a4.16,4.16,0,0,0,2.71,3.12c.36.13.71.27,1.06.42a3.91,3.91,0,0,0,1.48.3,3.05,3.05,0,0,0,2.36-1.06l.22-.28a1.53,1.53,0,0,1,1.22-.52,2.46,2.46,0,0,1,1.58.62l3.64,3.09a2.09,2.09,0,0,1,.59,2.81l-.23.28a3.34,3.34,0,0,0-.06,3.93c.21.33.4.66.59,1a4.14,4.14,0,0,0,3.52,2.16h.38a2.65,2.65,0,0,1,2.47,2.11l.77,4.37a1.62,1.62,0,0,1-.3,1.33,1.52,1.52,0,0,1-1.21.52h-.38a2.94,2.94,0,0,0-3,2.37c-.07.33-.15.66-.24,1a3.82,3.82,0,0,0,1.33,3.84l.32.27a2.09,2.09,0,0,1,.59,2.81l-2.55,3.09a1.53,1.53,0,0,1-1.21.53,2.47,2.47,0,0,1-1.59-.62l-.32-.27a3.94,3.94,0,0,0-2.54-1,3.23,3.23,0,0,0-1.43.32c-.3.14-.6.28-.91.4a3,3,0,0,0-1.78,3.38l.07.38a1.62,1.62,0,0,1-.31,1.34,1.52,1.52,0,0,1-1.2.51h-4.38a2.66,2.66,0,0,1-2.47-2.11l-.07-.38a4.17,4.17,0,0,0-2.71-3.13c-.35-.12-.71-.26-1.06-.41a3.84,3.84,0,0,0-1.48-.3,3,3,0,0,0-2.35,1.06l-.23.27a1.53,1.53,0,0,1-1.21.53,2.51,2.51,0,0,1-1.59-.62l-1.81-1.55-1.82-1.54a2.09,2.09,0,0,1-.59-2.82l.22-.27a3.32,3.32,0,0,0,.06-3.94c-.2-.32-.4-.66-.58-1a4.14,4.14,0,0,0-3.52-2.16h-.38a2.68,2.68,0,0,1-2.48-2.11l-.77-4.37a1.62,1.62,0,0,1,.31-1.34,1.54,1.54,0,0,1,1.2-.51h.39a3,3,0,0,0,3-2.38c.06-.33.14-.65.23-1a3.8,3.8,0,0,0-1.32-3.84l-.32-.27a2.08,2.08,0,0,1-.59-2.81l1.27-1.55,1.28-1.55a1.52,1.52,0,0,1,1.21-.52,2.46,2.46,0,0,1,1.58.62l.32.27a4,4,0,0,0,2.55,1,3.29,3.29,0,0,0,1.43-.32c.29-.15.6-.28.9-.41a3,3,0,0,0,1.78-3.37l-.06-.38a1.61,1.61,0,0,1,.3-1.34,1.55,1.55,0,0,1,1.21-.52h4.37m3.51,32.29a9.33,9.33,0,0,0,2-.21,8,8,0,0,0,3.1-1.4,7.82,7.82,0,0,0,1.39-1.3,8.61,8.61,0,0,0,1-1.61,8.72,8.72,0,0,0,.8-3.34,10,10,0,0,0-.15-2,11.37,11.37,0,0,0-.56-2,11.54,11.54,0,0,0-1.93-3.24,11.74,11.74,0,0,0-1.52-1.55,12.42,12.42,0,0,0-1.78-1.26,11.23,11.23,0,0,0-3.49-1.35,10.36,10.36,0,0,0-2.05-.22,9.5,9.5,0,0,0-2,.22,7.89,7.89,0,0,0-4.48,2.7,7.85,7.85,0,0,0-1,1.61,8.37,8.37,0,0,0-.8,3.34,9.24,9.24,0,0,0,.14,2,10.41,10.41,0,0,0,.57,2,11.56,11.56,0,0,0,1.92,3.25,12.57,12.57,0,0,0,3.3,2.81,11.58,11.58,0,0,0,3.49,1.35,10.36,10.36,0,0,0,2.06.21m-3.51-33h-4.37a2.23,2.23,0,0,0-2.25,2.72l.07.39a2.23,2.23,0,0,1-1.33,2.55c-.32.13-.64.28-.95.43a2.56,2.56,0,0,1-1.1.24,3.21,3.21,0,0,1-2.06-.79l-.32-.27a3.25,3.25,0,0,0-2.07-.8,2.28,2.28,0,0,0-1.79.8l-1.27,1.55-1.28,1.54a2.84,2.84,0,0,0,.68,3.86l.32.27a3.07,3.07,0,0,1,1.09,3.07q-.13.51-.24,1a2.2,2.2,0,0,1-2.24,1.78h-.39a2.22,2.22,0,0,0-2.24,2.73l.77,4.37a3.39,3.39,0,0,0,3.2,2.73h.39a3.42,3.42,0,0,1,2.87,1.77c.19.35.39.69.6,1a2.64,2.64,0,0,1,0,3.07l-.23.27a2.82,2.82,0,0,0,.68,3.85l1.82,1.55,1.82,1.55a3.25,3.25,0,0,0,2.07.8,2.25,2.25,0,0,0,1.78-.8l.23-.27a2.25,2.25,0,0,1,1.78-.8,3,3,0,0,1,1.19.25c.37.15.73.29,1.1.42a3.46,3.46,0,0,1,2.23,2.56l.07.38a3.39,3.39,0,0,0,3.2,2.73h4.38a2.22,2.22,0,0,0,2.24-2.73l-.07-.38a2.25,2.25,0,0,1,1.33-2.56c.33-.13.64-.27.95-.42a2.46,2.46,0,0,1,1.1-.25,3.21,3.21,0,0,1,2.07.8l.32.27a3.23,3.23,0,0,0,2.07.8,2.28,2.28,0,0,0,1.78-.8l2.55-3.1a2.81,2.81,0,0,0-.68-3.85l-.32-.27a3.09,3.09,0,0,1-1.09-3.07c.09-.34.18-.68.25-1a2.19,2.19,0,0,1,2.24-1.77h.38a2.22,2.22,0,0,0,2.24-2.73l-.77-4.37a3.39,3.39,0,0,0-3.2-2.73h-.39a3.38,3.38,0,0,1-2.86-1.78c-.2-.34-.4-.68-.61-1a2.62,2.62,0,0,1,0-3.07l.22-.27a2.83,2.83,0,0,0-.68-3.86l-3.64-3.09a3.23,3.23,0,0,0-2.07-.8,2.28,2.28,0,0,0-1.78.8l-.23.27a2.26,2.26,0,0,1-1.78.8,3.22,3.22,0,0,1-1.19-.25c-.36-.15-.73-.3-1.1-.43a3.43,3.43,0,0,1-2.23-2.55l-.07-.39A3.38,3.38,0,0,0,273.22,126.56Zm3.51,32.29a9.46,9.46,0,0,1-1.91-.2,10.48,10.48,0,0,1-3.26-1.27,10.73,10.73,0,0,1-1.67-1.18,12.33,12.33,0,0,1-1.44-1.45,11.05,11.05,0,0,1-1.8-3.05,10.81,10.81,0,0,1-.53-1.87A9.2,9.2,0,0,1,266,148a7.47,7.47,0,0,1,1.65-4.5,7.77,7.77,0,0,1,1.25-1.18,7.46,7.46,0,0,1,2.82-1.26,8.44,8.44,0,0,1,1.84-.2,9.29,9.29,0,0,1,1.9.2,10.87,10.87,0,0,1,3.27,1.26,12.81,12.81,0,0,1,1.66,1.18,13.23,13.23,0,0,1,1.44,1.46,10.9,10.9,0,0,1,1.8,3,9.48,9.48,0,0,1,.53,1.87,9.25,9.25,0,0,1,.13,1.87,7.65,7.65,0,0,1-.73,3.05,7.27,7.27,0,0,1-.92,1.45,6.36,6.36,0,0,1-1.25,1.18,7.33,7.33,0,0,1-2.82,1.27A8.34,8.34,0,0,1,276.73,158.85Z" class="cls-5"></path></g></g><g id="Group-3"><path d="M315.78,163.82l-.29-1.62a1.27,1.27,0,0,0-1.18-1l-.39.14c-.42,0-.6-.4-.82-.79-.07-.13-.14-.26-.22-.38a1,1,0,0,1,0-1.14l.08-.1a1,1,0,0,0-.25-1.42l-1.34-1.15a1,1,0,0,0-1.43,0l-.08.1a.92.92,0,0,1-1.1.2l-.41-.15a1.27,1.27,0,0,1-.82-.95l0-.14a1.25,1.25,0,0,0-1.18-1H304.7a.82.82,0,0,0-.83,1l0,.14a.83.83,0,0,1-.49.95l-.35.15a1.08,1.08,0,0,1-1.17-.2l-.12-.1a1,1,0,0,0-1.42,0l-.48.57-.47.58a1,1,0,0,0,.25,1.42l.12.1a1.13,1.13,0,0,1,.4,1.14l-.09.38a.81.81,0,0,1-.82.66h-.15a.82.82,0,0,0-.83,1l.29,1.62a1.25,1.25,0,0,0,1.18,1h.15a1.25,1.25,0,0,1,1.06.66l.22.38a1,1,0,0,1,0,1.13l-.08.1a1,1,0,0,0,.25,1.43l.67.57.67.57a1,1,0,0,0,1.43,0l.08-.1a.94.94,0,0,1,1.1-.2l.41.16a1.26,1.26,0,0,1,.82.94l0,.14a1.25,1.25,0,0,0,1.18,1h1.62a.82.82,0,0,0,.83-1l0-.14a.81.81,0,0,1,.49-.94l.35-.16a1.1,1.1,0,0,1,1.17.2l.12.1a1,1,0,0,0,1.42,0l1-1.14a1.06,1.06,0,0,0-.25-1.43l-.12-.1a1.15,1.15,0,0,1-.41-1.13c0-.13.07-.25.1-.38a.8.8,0,0,1,.82-.66H315A.82.82,0,0,0,315.78,163.82Zm-5.37-.12a3,3,0,0,1-.27,1.13,3.06,3.06,0,0,1-.34.54,3.19,3.19,0,0,1-.46.44,2.7,2.7,0,0,1-1,.46,3,3,0,0,1-.68.08,3.34,3.34,0,0,1-.7-.08,3.88,3.88,0,0,1-1.21-.46,4.28,4.28,0,0,1-1.15-1,3.9,3.9,0,0,1-.66-1.13,3.22,3.22,0,0,1-.2-.69,3.3,3.3,0,0,1-.05-.69,3,3,0,0,1,.27-1.13,2.66,2.66,0,0,1,.34-.53,2.73,2.73,0,0,1,.46-.44,2.87,2.87,0,0,1,1.05-.47,3,3,0,0,1,.68-.07,3.33,3.33,0,0,1,.7.07,4.17,4.17,0,0,1,1.21.47,4.37,4.37,0,0,1,.62.44,4.42,4.42,0,0,1,.53.53,3.9,3.9,0,0,1,.66,1.13,3.22,3.22,0,0,1,.2.69A3.3,3.3,0,0,1,310.41,163.7Z" class="cls-9" id="Shape-4"></path><g id="Shape-5"><path d="M306.32,173.25a1.06,1.06,0,0,1-1-.86l0-.14a1.44,1.44,0,0,0-.94-1.09L304,171a1.34,1.34,0,0,0-.51-.11,1,1,0,0,0-.8.36l-.09.1a.63.63,0,0,1-.51.23,1,1,0,0,1-.65-.25l-1.34-1.14a.86.86,0,0,1-.23-1.17l.08-.1a1.15,1.15,0,0,0,0-1.35c-.08-.12-.15-.25-.22-.37a1.46,1.46,0,0,0-1.23-.76h-.14a1.05,1.05,0,0,1-1-.85L297,164a.65.65,0,0,1,.65-.79h.14a1,1,0,0,0,1-.81l.09-.36a1.31,1.31,0,0,0-.46-1.33l-.12-.1a.86.86,0,0,1-.23-1.16l.95-1.15a.63.63,0,0,1,.51-.23,1,1,0,0,1,.65.25l.12.11a1.39,1.39,0,0,0,.88.33,1,1,0,0,0,.49-.11l.34-.15a1,1,0,0,0,.6-1.15l0-.14a.7.7,0,0,1,.13-.57.66.66,0,0,1,.51-.22h1.62a1.07,1.07,0,0,1,1,.85l0,.15a1.46,1.46,0,0,0,.95,1.08l.39.16a1.34,1.34,0,0,0,.52.1,1,1,0,0,0,.8-.36l.08-.1a.65.65,0,0,1,.52-.23,1,1,0,0,1,.64.25l1.35,1.15a.86.86,0,0,1,.23,1.16l-.09.1a1.17,1.17,0,0,0,0,1.36c.07.12.15.24.22.37a1.42,1.42,0,0,0,1.22.75h.14a1.05,1.05,0,0,1,1,.86l.29,1.61a.7.7,0,0,1-.13.57.68.68,0,0,1-.52.22h-.14a1,1,0,0,0-1,.81,2.49,2.49,0,0,1-.09.37,1.33,1.33,0,0,0,.46,1.32l.12.1a.86.86,0,0,1,.23,1.17l-.94,1.14a.65.65,0,0,1-.52.23,1,1,0,0,1-.64-.25l-.12-.1a1.38,1.38,0,0,0-.89-.34,1.09,1.09,0,0,0-.48.11l-.34.15a1,1,0,0,0-.61,1.15l0,.15a.69.69,0,0,1-.14.56.63.63,0,0,1-.51.23ZM305,161.3a3.53,3.53,0,0,0-.72.08,2.94,2.94,0,0,0-1.11.5,2.73,2.73,0,0,0-.49.47,2.49,2.49,0,0,0-.37.58,3,3,0,0,0-.29,1.2,3.64,3.64,0,0,0,0,.73,4.89,4.89,0,0,0,.21.72,4.18,4.18,0,0,0,.7,1.18,4.85,4.85,0,0,0,.55.56,5.75,5.75,0,0,0,.64.46,4.39,4.39,0,0,0,1.27.49,3.78,3.78,0,0,0,.74.07,3.45,3.45,0,0,0,.72-.07,2.94,2.94,0,0,0,1.11-.5,3.2,3.2,0,0,0,.5-.47,3.13,3.13,0,0,0,.36-.58,2.87,2.87,0,0,0,.29-1.2,3.64,3.64,0,0,0-.05-.73,3.35,3.35,0,0,0-.21-.73,4.1,4.1,0,0,0-.69-1.17,4.36,4.36,0,0,0-1.2-1,4.07,4.07,0,0,0-1.26-.49A3.82,3.82,0,0,0,305,161.3Z" class="cls-4"></path><path d="M304.9,156.59a.87.87,0,0,1,.82.7l0,.14a1.63,1.63,0,0,0,1.06,1.23l.39.15a1.51,1.51,0,0,0,.58.12,1.22,1.22,0,0,0,1-.43l.08-.1a.5.5,0,0,1,.38-.16.82.82,0,0,1,.52.21l1.35,1.14a.69.69,0,0,1,.2.91l-.08.1a1.35,1.35,0,0,0,0,1.57c.07.12.15.24.21.36a1.64,1.64,0,0,0,1.39.85h.14a.87.87,0,0,1,.82.7l.29,1.62a.48.48,0,0,1-.1.41.46.46,0,0,1-.37.16h-.14a1.17,1.17,0,0,0-1.19.95c0,.12-.05.24-.09.36a1.52,1.52,0,0,0,.52,1.52l.12.1a.69.69,0,0,1,.21.9l-.95,1.15a.46.46,0,0,1-.37.16.82.82,0,0,1-.52-.21l-.12-.1a1.55,1.55,0,0,0-1-.38,1.25,1.25,0,0,0-.57.13,2.52,2.52,0,0,1-.33.14,1.2,1.2,0,0,0-.71,1.36l0,.14a.47.47,0,0,1-.09.41.46.46,0,0,1-.37.16h-1.62a.88.88,0,0,1-.82-.7l0-.14a1.65,1.65,0,0,0-1.07-1.23l-.39-.15a1.51,1.51,0,0,0-.58-.12,1.2,1.2,0,0,0-.95.43l-.08.1a.48.48,0,0,1-.38.16.86.86,0,0,1-.52-.21l-.67-.57-.68-.57a.7.7,0,0,1-.2-.91l.08-.1a1.33,1.33,0,0,0,0-1.57l-.21-.36a1.62,1.62,0,0,0-1.39-.85h-.14a.88.88,0,0,1-.82-.7l-.28-1.62a.5.5,0,0,1,.09-.42.47.47,0,0,1,.37-.15h.14a1.2,1.2,0,0,0,1.2-1,3.59,3.59,0,0,1,.08-.35,1.5,1.5,0,0,0-.52-1.52l-.12-.1a.68.68,0,0,1-.2-.91l.47-.57.47-.57a.46.46,0,0,1,.37-.16.81.81,0,0,1,.53.21l.11.1a1.6,1.6,0,0,0,1,.38,1.22,1.22,0,0,0,.57-.13l.33-.15a1.2,1.2,0,0,0,.72-1.35l0-.14a.53.53,0,0,1,.09-.42.49.49,0,0,1,.37-.16h1.62m1.3,11.95a3.84,3.84,0,0,0,.76-.08,3.24,3.24,0,0,0,1.18-.53,3.16,3.16,0,0,0,.53-.5,3.08,3.08,0,0,0,.39-.62,3.21,3.21,0,0,0,.31-1.27,3.29,3.29,0,0,0-.06-.77,3.44,3.44,0,0,0-.21-.76,4.4,4.4,0,0,0-.73-1.23,4,4,0,0,0-.58-.59,4.71,4.71,0,0,0-.67-.47,4.11,4.11,0,0,0-1.32-.51,3.44,3.44,0,0,0-.78-.08,3.13,3.13,0,0,0-.75.08,3,3,0,0,0-1.19.53,2.78,2.78,0,0,0-.53.5,3.17,3.17,0,0,0-.39.61,3.25,3.25,0,0,0-.3,1.28,4,4,0,0,0,.05.77,4.35,4.35,0,0,0,.22.76,4.71,4.71,0,0,0,2,2.29,4.46,4.46,0,0,0,1.32.51,4.13,4.13,0,0,0,.78.08m-1.3-12.32h-1.62a.83.83,0,0,0-.83,1l0,.14a.84.84,0,0,1-.49.95l-.35.16a1,1,0,0,1-.41.09,1.15,1.15,0,0,1-.76-.3l-.12-.1a1.23,1.23,0,0,0-.77-.29.85.85,0,0,0-.66.29l-.47.57-.47.58a1,1,0,0,0,.25,1.42l.12.1a1.13,1.13,0,0,1,.4,1.14l-.09.38a.82.82,0,0,1-.83.66h-.14a.82.82,0,0,0-.83,1l.28,1.62a1.26,1.26,0,0,0,1.19,1h.14a1.25,1.25,0,0,1,1.06.66c.07.13.15.25.23.38a1,1,0,0,1,0,1.13l-.08.1a1.06,1.06,0,0,0,.25,1.43l.68.57.67.57a1.18,1.18,0,0,0,.76.3.83.83,0,0,0,.66-.3l.09-.1a.85.85,0,0,1,.66-.29,1.19,1.19,0,0,1,.44.09l.4.16a1.29,1.29,0,0,1,.83.94l0,.14a1.26,1.26,0,0,0,1.19,1h1.62a.82.82,0,0,0,.83-1l0-.14a.83.83,0,0,1,.49-.94l.36-.16a.9.9,0,0,1,.4-.09,1.23,1.23,0,0,1,.77.29l.11.1a1.21,1.21,0,0,0,.77.3.83.83,0,0,0,.66-.3l.94-1.14a1,1,0,0,0-.25-1.43l-.12-.1a1.14,1.14,0,0,1-.4-1.13,2.62,2.62,0,0,0,.09-.38.81.81,0,0,1,.83-.66h.14a.82.82,0,0,0,.83-1l-.28-1.62a1.26,1.26,0,0,0-1.19-1h-.14a1.27,1.27,0,0,1-1.06-.66c-.07-.13-.15-.26-.23-.38a1,1,0,0,1,0-1.14l.08-.1a1,1,0,0,0-.25-1.42L310,158.16a1.21,1.21,0,0,0-.76-.29.85.85,0,0,0-.66.29l-.09.1a.83.83,0,0,1-.66.3,1.19,1.19,0,0,1-.44-.09l-.4-.16a1.29,1.29,0,0,1-.83-.95l0-.14A1.26,1.26,0,0,0,304.9,156.21Zm1.3,11.95a3.43,3.43,0,0,1-.71-.08,3.73,3.73,0,0,1-1.2-.46,4.61,4.61,0,0,1-.62-.44,4.51,4.51,0,0,1-.53-.54,4.17,4.17,0,0,1-.67-1.13,3.9,3.9,0,0,1-.19-.69,3.25,3.25,0,0,1,0-.69,2.72,2.72,0,0,1,.27-1.12,2.15,2.15,0,0,1,.34-.54,2.4,2.4,0,0,1,.46-.44,2.82,2.82,0,0,1,1-.47,3.08,3.08,0,0,1,.68-.07,3.35,3.35,0,0,1,.71.07,4.17,4.17,0,0,1,1.21.47,4.28,4.28,0,0,1,.61.44,3.87,3.87,0,0,1,.53.54,4,4,0,0,1,.67,1.12,4.18,4.18,0,0,1,.2.69,3.27,3.27,0,0,1,0,.69,2.65,2.65,0,0,1-.27,1.13,2.34,2.34,0,0,1-.34.54,2.75,2.75,0,0,1-.46.44,2.65,2.65,0,0,1-1,.46A3,3,0,0,1,306.2,168.16Z" class="cls-5"></path></g></g></g><g id="Buttons-Bg"><path d="M192.83,136.7v13a4,4,0,0,1-1.5,3.14v19.89l-40.92-7.81a7.74,7.74,0,0,1-6.29-7.6V58.41l40.65,6.3a7.74,7.74,0,0,1,6.56,7.65v61.2A4.06,4.06,0,0,1,192.83,136.7Z" class="cls-10" id="Path-8"></path><path d="M191.33,72.36V175.72a7.75,7.75,0,0,1-9.2,7.61L139,175.09a7.75,7.75,0,0,1-6.29-7.61V65.68A7.75,7.75,0,0,1,141.62,58l2.5.39,40.65,6.3A7.74,7.74,0,0,1,191.33,72.36Z" class="cls-11" id="Path-9"></path></g><g id="Buttons"><g id="Group-4"><g id="Path-10"><path d="M154.25,69.87l10.4,2a4,4,0,0,1,3.27,4v13a4,4,0,0,1-4.76,4l-10.87-2a4,4,0,0,1-3.3-4.1l.47-13A4,4,0,0,1,154.25,69.87Z" class="cls-12"></path><path d="M152.6,70.82l10.41,2a4,4,0,0,1,3.27,4v13a4,4,0,0,1-4.76,4l-10.88-2a4,4,0,0,1-3.29-4.11l.47-13A4,4,0,0,1,152.6,70.82Z" class="cls-13"></path></g><g id="Path-11"><path d="M191.33,77.63V96.87a4,4,0,0,1-3.26.82l-10.88-2a4,4,0,0,1-3.29-4.11l.47-13a4,4,0,0,1,4.79-3.81l10.4,2A4.05,4.05,0,0,1,191.33,77.63Z" class="cls-12"></path><path d="M177.51,75.76l10.41,2a4,4,0,0,1,3.27,4v13a4,4,0,0,1-4.76,4l-10.88-2a4,4,0,0,1-3.29-4.1l.47-13A4,4,0,0,1,177.51,75.76Z" class="cls-14"></path></g></g><g id="Group-5"><g id="Path-12"><path d="M154.25,97.84l10.4,2a4,4,0,0,1,3.27,4v13a4,4,0,0,1-4.76,4l-10.87-2a4,4,0,0,1-3.3-4.11l.47-12.95A4,4,0,0,1,154.25,97.84Z" class="cls-12"></path><path d="M152.6,98.78l10.41,2a4,4,0,0,1,3.27,3.95v13a4,4,0,0,1-4.76,4l-10.88-2a4,4,0,0,1-3.29-4.1l.47-13A4,4,0,0,1,152.6,98.78Z" class="cls-15"></path></g><g id="Path-13"><path d="M191.33,105.6v19.24a4.18,4.18,0,0,1-1.39.72,3.91,3.91,0,0,1-1.87.1l-10.88-2a4,4,0,0,1-3.29-4.11l.47-13a4,4,0,0,1,4.79-3.81l10.4,2A4.07,4.07,0,0,1,191.33,105.6Z" class="cls-12"></path><path d="M177.51,103.73l10.41,2a4,4,0,0,1,3.27,4v13a4,4,0,0,1-4.76,4l-10.88-2a4,4,0,0,1-3.29-4.11l.47-12.95A4,4,0,0,1,177.51,103.73Z" class="cls-16"></path></g></g><g id="Group-6"><g id="Path-14"><path d="M154.25,125.8l10.4,2a4,4,0,0,1,3.27,4v13a4,4,0,0,1-4.76,4l-10.87-2a4,4,0,0,1-3.3-4.11l.47-12.95A4,4,0,0,1,154.25,125.8Z" class="cls-12"></path><path d="M152.6,126.75l10.41,2a4,4,0,0,1,3.27,4v12.95a4,4,0,0,1-4.76,4l-10.88-2a4,4,0,0,1-3.29-4.11l.47-12.95A4,4,0,0,1,152.6,126.75Z" class="cls-17"></path></g><g id="Path-15"><path d="M192.83,136.7v13a4,4,0,0,1-2.89,3.86,3.91,3.91,0,0,1-1.87.1l-10.88-2a4,4,0,0,1-3.29-4.1l.47-13a4,4,0,0,1,4.79-3.81l10.4,2a3.94,3.94,0,0,1,1.77.81A4.06,4.06,0,0,1,192.83,136.7Z" class="cls-12"></path><path d="M177.51,131.69l10.41,2a4,4,0,0,1,3.27,4v13a4,4,0,0,1-4.76,4l-10.88-2a4,4,0,0,1-3.29-4.11l.47-12.95A4,4,0,0,1,177.51,131.69Z" class="cls-18"></path></g></g></g><g id="Chemical-Tube"><path d="M334.09,102.16c-.81,2.13-1.82,4.38-2.73,6.32a7.41,7.41,0,0,1-7.9,4.14L200.78,92.38a6.62,6.62,0,0,1-5.49-4.16,7.14,7.14,0,0,1-.4-3.94c1.86,1,5.16,1.61,11,1.06l1.68-.17c14.52-1.58,20.41-4.6,35.77,3.78,15.93,8.71,25,12.56,47.4,7.84s29.69,10.46,36.71,6.69a13.36,13.36,0,0,0,6.18-6.35A5.71,5.71,0,0,1,334.09,102.16Z" class="cls-19" id="Path-16"></path><path d="M334.09,102.16c-.81,2.13-1.82,4.38-2.73,6.32a7.41,7.41,0,0,1-7.9,4.14L200.78,92.38a6.62,6.62,0,0,1-5.49-4.16,7.14,7.14,0,0,1-.4-3.94,7.64,7.64,0,0,1,3.7-5.26l5.09-2.94a3.55,3.55,0,0,1,.44-.21A12.6,12.6,0,0,1,211.5,75a1.48,1.48,0,0,1,.39,2.75c-2.44,1.32-1.69,1.61-1.69,1.61S312.12,95.87,319.89,96.85c4.07.51,5.34-.75,5.63-2.06a2.21,2.21,0,0,1,3.08-1.5,16.12,16.12,0,0,1,3.91,2.55,5.79,5.79,0,0,1,1.09,1.29A5.71,5.71,0,0,1,334.09,102.16Z" class="cls-20" id="Path-17"></path><circle r="1.93" cy="104.29" cx="296.91" class="cls-5" id="Oval-3"></circle><circle r="1.93" cy="97.96" cx="281.93" class="cls-5" id="Oval-4"></circle><circle r="1.93" cy="94.87" cx="231.38" class="cls-5" id="Oval-5"></circle><circle r="1.93" cy="82.18" cx="205.24" class="cls-5" id="Oval-6"></circle><circle transform="translate(72.9 271.34) rotate(-76.33)" r="0.96" cy="89.29" cx="209.07" class="cls-5" id="Oval-7"></circle><circle transform="translate(88.33 282.65) rotate(-76.33)" r="0.96" cy="85.14" cx="223.98" class="cls-5" id="Oval-8"></circle><circle transform="translate(91.23 308.83) rotate(-76.3)" r="0.96" cy="96.35" cx="242.18" class="cls-5" id="Oval-9"></circle><circle transform="translate(110.18 323.74) rotate(-76.33)" r="0.96" cy="91.78" cx="261.04" class="cls-5" id="Oval-10"></circle><circle transform="translate(108.08 326.01) rotate(-76.33)" r="0.96" cy="94.25" cx="261.44" class="cls-5" id="Oval-11"></circle><circle transform="translate(135.67 370.96) rotate(-76.33)" r="0.96" cy="99.17" cx="303.83" class="cls-5" id="Oval-12"></circle><circle transform="translate(139.95 398.8) rotate(-76.33)" r="0.96" cy="110.37" cx="323.68" class="cls-5" id="Oval-13"></circle><circle transform="translate(157.94 392.1) rotate(-76.33)" r="0.96" cy="95.57" cx="328.41" class="cls-5" id="Oval-14"></circle><circle transform="translate(150.85 396.63) rotate(-76.33)" r="0.96" cy="102.35" cx="327.75" class="cls-5" id="Oval-15"></circle></g><g id="Man-2"><path d="M144.6,89.62s.56-4.61,1.47-5.21S152,82,152.68,81.13s.61,1.15-.43,1.88a6.91,6.91,0,0,1-1.39.85s1.09-.06,1.39.18.08,1,.89,2.07-.64,3.51-.64,4c0,0-.85-.24-.49-1.27,0,0-.23,3.31-1.48,4.2s-4.95-1.6-4.95-1.6l-1-1.82" class="cls-21" id="Path-18"></path><g id="Group-7"><path d="M113.08,213.75s-2.62-5.18-5.66-1.49-1.16,4.4,3.36,9.25,9.06,2.27,7,0S113.08,213.75,113.08,213.75Z" class="cls-22" id="Path-19"></path><path d="M131.17,203.72c-1.78-1.7-2.67-6.23-2.67-6.23l-5.13-3.55c-2.37,2.75-2.07,4.6-1.34,5s1.45,1,4.12,4S133,205.42,131.17,203.72Z" class="cls-23" id="Path-20"></path></g><path d="M140.42,175.35c-3,6.29-11.76,22.83-11.76,22.83l-5.58-3.53s.11-.26.3-.74h0c1.49-3.67,7.89-19.71,7.12-22.48-.36-1.3-3.92-2.65-8.07-4.67q-.57-.27-1.14-.57l-.08,0c2.08,4.2,4.39,10,3.88,14.42-.91,7.66-11,35.21-11,35.21l-6.68-3.52s1.22-9.61,2.94-17.61,0-9,0-9c-10.09-16.77-16.64-29.74-16.64-29.74l14.65-5.27c-.34-10.27,10.81-6,10.81-6A107.07,107.07,0,0,0,134,159.45C141.66,165.38,143.44,169.06,140.42,175.35Z" class="cls-24" id="Path-21"></path><path d="M133.43,171.45c-.32,3.9-9.76,21.91-10.05,22.47h0c1.49-3.66,7.89-19.71,7.12-22.48-.36-1.3-3.92-2.65-8.07-4.67q-.57-.27-1.14-.57C118,162,114.18,157,114.18,157,124.94,157.3,133.75,167.49,133.43,171.45Z" class="cls-25" id="Path-22"></path><path d="M116.93,88.71s-6.63-1.62-9.07,7.92c-.58,2.29-1,4.12-1.22,5.6-.09,0-.17.16-.22.55-.2,1.7-.89,5.5-.89,5.5l1.9-.26h0l4.49.27a7.88,7.88,0,0,1,.09-1.69,4.58,4.58,0,0,1,.56-1.63c.63-1,1.21-.89,2.43-1.58a10.07,10.07,0,0,0,1.21-.84C118.31,100.84,116.93,88.71,116.93,88.71Z" class="cls-21" id="Path-23"></path><path d="M150.48,93.38c-.4,2.47-3.23,17.45-13.57,24.45a22.46,22.46,0,0,1-11.34,4.06A25.66,25.66,0,0,1,121,122a1,1,0,0,0-.59.13,1,1,0,0,0-.54.88l0,.6-.68,21a1.85,1.85,0,0,1,0,.23,14.51,14.51,0,0,1-5.48,7.57c-3.62,2.67-9.51,4.76-19,3.67a1.06,1.06,0,0,1-.94-1s-1.41-8.62,1.62-24.19c1.54-7.91,3.62-20.38,7-22.52s9.58-1,9.58-1c22.6,1.25,22.27,3.21,26.65-4.17a61.71,61.71,0,0,0,5.82-12.89,1.05,1.05,0,0,1,.89-.75,4.63,4.63,0,0,1,4,1.74,8.46,8.46,0,0,1,1,1.53A1,1,0,0,1,150.48,93.38Z" class="cls-6" id="Path-24"></path><path d="M119.24,88.1A9.65,9.65,0,0,1,114.87,92a5,5,0,0,0-3.07,4.13s-.57-1.7-1.42-1.34-.57,5.1,1.42,4.86a19.71,19.71,0,0,0-2.51,3.64c-.36,1.09-2.54.84-3.76.48S98.6,98.69,99,93.23,103,85,108.32,84s5.1-1.58,5.46-2.55,2.55.36,2.55,1.45c0,0,0-2.18-1.09-2.91S122.15,81.06,119.24,88.1Z" class="cls-24" id="Path-25"></path><path d="M115,103.38c-1.22.69-1.8.58-2.43,1.58a4.58,4.58,0,0,0-.56,1.63c-.45-.68-.84-3.7,0-3.29A6.07,6.07,0,0,0,115,103.38Z" class="cls-26" id="Path-26"></path><path d="M150.38,92.74v0a.82.82,0,0,0-1.51.17l-1.6,5.55c-2.08,7.23-8.65,15.34-20.78,17.93-8.28,1.76-11.63,1.12-12.91.53a.82.82,0,0,0-1.12.5c-.73,2.29-2.29,8.45-2.22,18.94,0,9,1.77,13.39,2.92,15.28a.82.82,0,0,0,1.22.21,14.38,14.38,0,0,0,4.78-7,1.85,1.85,0,0,0,0-.23l.68-21h0l0-.6a1,1,0,0,1,.54-.88A1,1,0,0,1,121,122a25.66,25.66,0,0,0,4.55-.08,22.46,22.46,0,0,0,11.34-4.06c10.34-7,13.17-22,13.57-24.45A1,1,0,0,0,150.38,92.74Z" class="cls-12" id="Path-27"></path></g><g id="Man-1"><g id="Group-8"><path d="M244.8,281.84s.49,6,1.82,7.76,1.7,3.34.49,3.22a10.92,10.92,0,0,1-6.43-5.1c-1.34-2.85-4-4.54-3.7-5.88s.42-3.76,4.24-4.25,3.58,4.25,3.58,4.25" class="cls-27" id="Path-28"></path><path d="M237.28,274.2a18.36,18.36,0,0,0,2.21,7.16c1.85,2.91,2.7,5.13-.3,4s-4.58-5.12-6.58-6.21-3-1.88-2.61-3.52a10.9,10.9,0,0,1,2.25-4.12c.48-.37,5,2.67,5,2.67" class="cls-28" id="Path-29"></path></g><path d="M286.76,195.14s2.28-2.34,1-5c0,0-1.34-2-2.91-1.78a7.87,7.87,0,0,0-3.28,1.62l5.2,5.17" class="cls-21" id="Path-30"></path><path d="M279.33,227.6l-34.47-6.49a4.18,4.18,0,0,1-3.41-4.1V163a4.19,4.19,0,0,1,5-4.11l34.47,6.49a4.18,4.18,0,0,1,3.41,4.11v54A4.18,4.18,0,0,1,279.33,227.6Z" class="cls-29" id="Path-31"></path><path d="M230,221.87s.12,5.74,5,14.6-3.28,35.67-3.28,35.67a12.71,12.71,0,0,0,5.58,2.06s9-19.17,10.8-28.39.36-11.16,0-13.1S230,221.87,230,221.87Z" class="cls-25" id="Path-32"></path><path d="M256.8,217.6s11.67,21.45,11.29,25.91c-.84,10.19-15,26.93-18.19,31.29l-5.1,7L239.71,278s9.7-19.9,11.4-24.26,1.94-12.38-2.67-17.47S229,227.77,230.12,220.7,256.8,217.6,256.8,217.6Z" class="cls-24" id="Path-33"></path><path d="M250.46,171.28a5.13,5.13,0,0,1-2.84,1.94l-.25.11a2.93,2.93,0,0,0-1.52,1.43c-.26.52-.45,1-.6,1.32a4.87,4.87,0,0,0-.45,1.51h-4.53s.06-.22.15-.59a5.87,5.87,0,0,1-2.24-.4v-4.49l2.64-.64a6.39,6.39,0,0,0-.55-2c-1.45-3.07-3.88-10.27,0-14.39s11.16-2.19,10.6,3.55C250.87,158.66,252,169,250.46,171.28Z" class="cls-21" id="Path-34"></path><path d="M247.15,161.74s-.73-1.29-1.54-1.29-.32,5.58.77,5.25c0,0-.45,3.4-2.87,3.64s0,5.82-7.28,3.4-.73-7.93-4.61-10.19-7.44-8.29-2.1-9.64,9.55-3.54,8.66-6.38,3.31-8.49,9-4.28,5.17,4.77,7.76,3.4,6.47,4.44,2.83,9.38-9.3,5.9-9.54,7.52l-.24,1.62Z" class="cls-24" id="Path-35"></path><path d="M247.62,173.22l-.25.11a2.93,2.93,0,0,0-1.52,1.43c-.26.52-.45,1-.6,1.32-.23-.21-.52-1-.73-3.42A5.65,5.65,0,0,0,247.62,173.22Z" class="cls-26" id="Path-36"></path><path d="M284.86,197.21c-5.25,4-28.77-4.17-28.77-4.17v.06L259,221.9a24.32,24.32,0,0,1-9.91,4.56,21.93,21.93,0,0,1-15.79-2.68l-3.3-1.91s-2.43-7.85-2.79-21.31-2-18.21,2.79-22.56c0,0,7.74-5.84,22.31.41s17.8,9.46,27.07,10.9l5.33.94S290.11,193.2,284.86,197.21Z" class="cls-30" id="Path-37"></path><path d="M249.09,226.46c0-3.88,0-19.77-3-27.76-3.43-9.14.84-15.37,2.85-12,1.38,2.25,5,4.95,7.17,6.45L259,221.9A24.32,24.32,0,0,1,249.09,226.46Z" class="cls-31" id="Path-38"></path><path d="M227.4,181.77a24.37,24.37,0,0,0-3,10c-.16,5.1,3,13,3,13S226.84,192.76,227.4,181.77Z" class="cls-31" id="Path-39"></path></g><g id="Women"><polygon points="230.85 63.07 194.77 57.21 194.77 31.11 230.85 36.97 230.85 63.07" class="cls-4" id="Path-40"></polygon><path d="M231.33,20.23a14.37,14.37,0,0,1-2,3.38V22.26l-.15.14a3.58,3.58,0,0,1,.44-.43A18.15,18.15,0,0,0,231.33,20.23Z" class="cls-26" id="Path-41"></path><g id="Group-9"><path d="M274,34.3c0,14.54-15,26.2-33.43,29S193,47.15,193,28.74s30.33,3.88,48.8,1.05S274,15.88,274,34.3Z" class="cls-32" id="Path-42"></path><path d="M238,24.58c-2.27,3-6.6,6.79-11.66,10.65-9.38,7.17-21.25,14.63-27,18.13-2.1,1.29-3.36,2-3.36,2s-9.82-4-7.77-13S214,30.89,218.47,14.64c0,0,0-2.31-2.92-3.76S213.37-1.62,221.74.2,234,4.57,234,4.57A4.4,4.4,0,0,1,238.84,7C240.3,10.15,246,13.91,238,24.58Z" class="cls-24" id="Path-43"></path><path d="M224.72,25.75c.15-.08,2.07-.67,2.07-.67,1.78-.17,10.83-1.91,19.66,3,9.62,5.34,10,25.48,10.19,28.47s-9.94,1.77-14.47,3.16c-12.72,3.9-8.52-1.19-10.54-.32-.46.19-1.91,4-2.25,3.67l-8.68-9.27-.15-.13-11-8.4a1.17,1.17,0,0,1,.85-2.1,1.17,1.17,0,0,0,1.28-.87C212.49,39.07,216.21,30.39,224.72,25.75Z" class="cls-5" id="Path-44"></path><path d="M233.51,16.26s1.72,2.58,1.72,4V25s-1.08,1.78-4.53,2.26-1.4-2.42-1.4-2.42v-2.6l-.31.28a4.14,4.14,0,0,1-5.1.21c-2.68-1.79-3.22-9.85-3.25-12a8.74,8.74,0,0,0,4.62-.14L231.08,9a3.4,3.4,0,0,1,1.73,4,3.56,3.56,0,0,1,1.91-2.41c1.46-.48,1.7,1.46.81,3.4S233.51,16.26,233.51,16.26Z" class="cls-21" id="Path-45"></path><path d="M236.05,55.88a69.35,69.35,0,0,1,9.72-3.81c4.77-1.21,3.16-1.94,3.16-1.94s-4-10.19-1.86-16.74a16.67,16.67,0,0,0-2,8.09c-.16,5.25.19,7.52-2.87,10.27s-8.79,3.42-10,4.13l-1.27.72v1.86l5.2-2.58" class="cls-33" id="Path-46"></path><path d="M221.57,37.09s-.06-4.93.49-6c0,0-2.61,3.14-2.73,4.71S221.57,37.09,221.57,37.09Z" class="cls-33" id="Path-47"></path><path d="M236.05,55.88s1.68,3.93,0,5.37-3.53.82-3.91,1.47c0,0-.49-.37.48-1s.48-.41.48-.41a2.79,2.79,0,0,0-1.7.77c-.44.65-1.17.93-1.13.61A3.47,3.47,0,0,1,231.61,61a3.42,3.42,0,0,0-1.34.57C229.42,62.07,227.43,58.76,236.05,55.88Z" class="cls-21" id="Path-48"></path><path d="M232.85,9a7.18,7.18,0,0,1-1.52,3.48c-1.18,1.18-4.21,1.52-3.36.33,0,0-2.09,1.43-3.06,1.4s.21-1.4.21-1.4-1.58,1.55-2.79,1.64,0-1.7,0-1.7-1.24,1.34-2,1.34,0-4.13,0-4.13,12.22-2.88,13-1.91S232.85,9,232.85,9Z" class="cls-24" id="Path-49"></path><path d="M233.51,16.26a9.15,9.15,0,0,1-.32,3.63,6.12,6.12,0,0,1-1.07,1.85s-.18.94,1.25.21,1.48-1.15,1.48-1.15-.3,3-1.76,3.84,2.4,1.29,4-.44S234.82,16.17,233.51,16.26Z" class="cls-24" id="Path-50"></path><polygon points="194.96 57.05 194.96 31.32 230.67 37.12 230.67 62.85 194.96 57.05" class="cls-34" id="Path-51"></polygon><path d="M195.14,31.54l35.34,5.74V62.63l-35.34-5.74V31.54m-.37-.44V57.21l36.08,5.86V37Z" class="cls-6" id="Shape-6"></path></g><path d="M211.16,47.27l2,1.72a2.61,2.61,0,0,1-2,.91,2.63,2.63,0,1,1,2.64-2.63Z" class="cls-5" id="Path-52"></path></g><g id="element1"><path d="M115.63,273.32v-66a10.42,10.42,0,0,1,5.54-9.2l80.19-43v-5.33l-.63.32-82.17,44a15,15,0,0,0-8,13.16v67.15a14.52,14.52,0,0,0,.11,1.74Z" class="cls-35" id="Path-53"></path><g id="Group-10"><path d="M246.84,301.08v-66a10.45,10.45,0,0,1,5.54-9.2l80.2-43v-5.33l-.64.32-82.17,44a15,15,0,0,0-8,13.15v67.15a14.26,14.26,0,0,0,.11,1.74Z" class="cls-35" id="Path-54"></path><path d="M354.82,139.47l-78.18,45a4.45,4.45,0,0,1-6.66-3.86V156.44a4.44,4.44,0,0,1,2.23-3.85l78.17-45a4.44,4.44,0,0,1,6.66,3.85v24.2A4.43,4.43,0,0,1,354.82,139.47Z" class="cls-36" id="Path-55"></path><path d="M336.29,236.23l-78.17,45a4.45,4.45,0,0,1-6.67-3.85v-24.2a4.44,4.44,0,0,1,2.23-3.85l78.17-45a4.45,4.45,0,0,1,6.67,3.85v24.19A4.46,4.46,0,0,1,336.29,236.23Z" class="cls-36" id="Path-56"></path></g></g></g></g></g></g></svg>