<svg id="undraw_data_re_80ws" xmlns="http://www.w3.org/2000/svg" width="418.424" height="314.142" viewBox="0 0 418.424 314.142">
  <defs>
    <style>
      .cls-1 {
        fill: #f2f2f2;
      }

      .cls-2 {
        fill: #fff;
      }

      .cls-3 {
        fill: #ccc;
      }

      .cls-4 {
        fill: #4b9ef8;
      }

      .cls-5 {
        fill: #3f3d56;
      }

      .cls-6 {
        fill: #ffb8b8;
      }

      .cls-7 {
        fill: #2f2e41;
      }

      .cls-8 {
        opacity: 0.2;
      }

      .cls-9 {
        fill: #e6e6e6;
      }

      .cls-10 {
        fill: #a0616a;
      }

      .cls-11 {
        fill: #ff6584;
      }
    </style>
  </defs>
  <path id="路径_83" data-name="路径 83" class="cls-1" d="M554.064,305.914H265.285a7.444,7.444,0,0,1-7.435-7.435V120.413a5.453,5.453,0,0,1,5.447-5.448h292.66a5.548,5.548,0,0,1,5.541,5.542V298.479A7.444,7.444,0,0,1,554.064,305.914Z" transform="translate(-194.409 -108.744)"/>
  <path id="路径_84" data-name="路径 84" class="cls-2" d="M554.977,312.072H285.844a6.946,6.946,0,0,1-7.155-6.7V150.31a5.149,5.149,0,0,1,5.3-4.969H556.743a5.235,5.235,0,0,1,5.39,5.051v154.98A6.947,6.947,0,0,1,554.977,312.072Z" transform="translate(-205.858 -125.432)"/>
  <path id="路径_85" data-name="路径 85" class="cls-3" d="M561.268,112.4H257.618v-3.786a7.469,7.469,0,0,1,7.462-7.458H553.805a7.468,7.468,0,0,1,7.462,7.458Z" transform="translate(-194.282 -101.159)"/>
  <circle id="椭圆_96" data-name="椭圆 96" class="cls-2" cx="1.93" cy="1.93" r="1.93" transform="translate(74.968 3.703)"/>
  <circle id="椭圆_97" data-name="椭圆 97" class="cls-2" cx="1.93" cy="1.93" r="1.93" transform="translate(82.295 3.703)"/>
  <circle id="椭圆_98" data-name="椭圆 98" class="cls-2" cx="1.93" cy="1.93" r="1.93" transform="translate(89.621 3.703)"/>
  <path id="路径_86" data-name="路径 86" class="cls-3" d="M562.187,318.229H353.62a7.9,7.9,0,0,1-7.886-7.886V209.785a5.9,5.9,0,0,1,5.9-5.9H564.081a6,6,0,0,1,5.992,5.992V310.343A7.9,7.9,0,0,1,562.187,318.229ZM351.632,204.788a5,5,0,0,0-5,5V310.343a6.993,6.993,0,0,0,6.985,6.985H562.187a6.993,6.993,0,0,0,6.985-6.985V209.879a5.1,5.1,0,0,0-5.091-5.091Z" transform="translate(-242.691 -157.595)"/>
  <path id="路径_87" data-name="路径 87" class="cls-1" d="M370.444,320.064H564.591a7.21,7.21,0,0,0,7.21-7.21V228.791a7.21,7.21,0,0,0-7.21-7.21H370.444a7.21,7.21,0,0,0-7.21,7.21v84.063A7.21,7.21,0,0,0,370.444,320.064Z" transform="translate(-252.305 -167.316)"/>
  <circle id="椭圆_99" data-name="椭圆 99" class="cls-3" cx="4.056" cy="4.056" r="4.056" transform="translate(136.128 70.611)"/>
  <circle id="椭圆_100" data-name="椭圆 100" class="cls-3" cx="4.056" cy="4.056" r="4.056" transform="translate(136.128 85.932)"/>
  <circle id="椭圆_101" data-name="椭圆 101" class="cls-3" cx="4.056" cy="4.056" r="4.056" transform="translate(136.128 101.253)"/>
  <circle id="椭圆_102" data-name="椭圆 102" class="cls-3" cx="4.056" cy="4.056" r="4.056" transform="translate(136.128 116.575)"/>
  <path id="路径_88" data-name="路径 88" class="cls-3" d="M605.99,266.756H472.6a.451.451,0,1,1,0-.9H605.99a.451.451,0,1,1,0,.9Z" transform="translate(-312.143 -191.639)"/>
  <path id="路径_89" data-name="路径 89" class="cls-3" d="M605.99,300.756H472.6a.451.451,0,1,1,0-.9H605.99a.451.451,0,1,1,0,.9Z" transform="translate(-312.143 -210.318)"/>
  <path id="路径_90" data-name="路径 90" class="cls-3" d="M605.99,334.756H472.6a.451.451,0,1,1,0-.9H605.99a.451.451,0,1,1,0,.9Z" transform="translate(-312.143 -228.996)"/>
  <path id="路径_91" data-name="路径 91" class="cls-3" d="M605.99,368.756H472.6a.451.451,0,1,1,0-.9H605.99a.451.451,0,1,1,0,.9Z" transform="translate(-312.143 -247.675)"/>
  <path id="路径_92" data-name="路径 92" class="cls-4" d="M510.475,383.528H497.407a2.256,2.256,0,0,1-2.253-2.253V369.108a2.256,2.256,0,0,1,2.253-2.253h13.068a2.256,2.256,0,0,1,2.253,2.253v12.167A2.256,2.256,0,0,1,510.475,383.528Z" transform="translate(-324.778 -247.126)"/>
  <path id="路径_93" data-name="路径 93" class="cls-4" d="M575.475,364.849H562.407a2.256,2.256,0,0,1-2.253-2.253V335.108a2.256,2.256,0,0,1,2.253-2.253h13.068a2.256,2.256,0,0,1,2.253,2.253V362.6A2.256,2.256,0,0,1,575.475,364.849Z" transform="translate(-360.488 -228.447)"/>
  <path id="路径_94" data-name="路径 94" class="cls-4" d="M641.475,346.171H628.407a2.256,2.256,0,0,1-2.253-2.253V301.108a2.256,2.256,0,0,1,2.253-2.253h13.068a2.256,2.256,0,0,1,2.253,2.253v42.809A2.256,2.256,0,0,1,641.475,346.171Z" transform="translate(-396.746 -209.768)"/>
  <path id="路径_95" data-name="路径 95" class="cls-4" d="M709.475,328.041H696.407a2.256,2.256,0,0,1-2.253-2.253v-57.68a2.256,2.256,0,0,1,2.253-2.253h13.068a2.256,2.256,0,0,1,2.253,2.253v57.68A2.255,2.255,0,0,1,709.475,328.041Z" transform="translate(-434.104 -191.639)"/>
  <path id="路径_96" data-name="路径 96" class="cls-5" d="M605.99,402.756H472.6a.451.451,0,1,1,0-.9H605.99a.451.451,0,1,1,0,.9Z" transform="translate(-312.143 -266.354)"/>
  <path id="路径_97" data-name="路径 97" class="cls-6" d="M898.262,580.441a4.532,4.532,0,0,1,6.9-.786l14.31-7.385-.89,8.321-13.452,5.738a4.556,4.556,0,0,1-6.871-5.887Z" transform="translate(-545.812 -359.976)"/>
  <path id="路径_98" data-name="路径 98" class="cls-5" d="M924.19,546.718a2.031,2.031,0,0,1-.686-1l-1.138-3.677a2.035,2.035,0,0,1,.715-2.218l11.6-8.76,12.561-23.3a6.532,6.532,0,1,1,10.319,8.013l-7.146,15.083a20.9,20.9,0,0,1-10.573,10.228l-13.592,5.9a2.03,2.03,0,0,1-2.058-.264Z" transform="translate(-559.428 -323.15)"/>
  <circle id="椭圆_103" data-name="椭圆 103" class="cls-6" cx="11.068" cy="11.068" r="11.068" transform="translate(387.379 152.753)"/>
  <path id="路径_99" data-name="路径 99" class="cls-6" d="M878.874,659.758H873.35l-2.628-21.309h8.154Z" transform="translate(-484.917 -350.747)"/>
  <path id="路径_100" data-name="路径 100" class="cls-7" d="M859.617,682.233h10.654v6.708H852.908A6.709,6.709,0,0,1,859.617,682.233Z" transform="translate(-475.13 -374.802)"/>
  <path id="路径_101" data-name="路径 101" class="cls-6" d="M918.874,659.759H913.35l-2.628-21.31h8.154Z" transform="translate(-506.892 -350.748)"/>
  <path id="路径_102" data-name="路径 102" class="cls-7" d="M899.616,682.234h10.655v6.708H892.908A6.708,6.708,0,0,1,899.616,682.234Z" transform="translate(-497.105 -374.802)"/>
  <path id="路径_103" data-name="路径 103" class="cls-7" d="M990.447,683.658h-6.474a2.032,2.032,0,0,1-1.958-1.5L972.7,647.594a.225.225,0,0,0-.443.072l1.882,32.78a2.028,2.028,0,0,1-2.193,2.137l-7.278-.607a2.033,2.033,0,0,1-1.846-1.786l-6.629-68.831,2.565,1.539,24.031-4.08,9.67,72.544a2.028,2.028,0,0,1-2.01,2.3Z" transform="translate(-578.06 -380.054)"/>
  <path id="路径_104" data-name="路径 104" class="cls-5" d="M963.65,557.607a14.843,14.843,0,0,1-7.522-2.117,2.018,2.018,0,0,1-.963-2.068c.845-5.176,5.265-31.727,9.287-46.2,1.638-5.9,5.259-9.071,10.764-9.438a15.314,15.314,0,0,1,15.954,14.06c1.315,14.622-4.026,35.4-6.383,43.65a2.026,2.026,0,0,1-3.194,1.039l-4.8-3.737a1.592,1.592,0,0,0-2.035.085C970.7,556.49,966.858,557.607,963.65,557.607Z" transform="translate(-577.482 -319.037)"/>
  <path id="路径_105" data-name="路径 105" class="cls-8" d="M904.588,443.738l4.055,17.124-5.859,14.42,4.056-13.969Z" transform="translate(-502.531 -243.778)"/>
  <path id="路径_106" data-name="路径 106" class="cls-7" d="M994.519,455.781a7.453,7.453,0,0,0,2.879-.521c.4-.155.821-.283,1.223-.438a9.923,9.923,0,0,0,5.976-8.961,12.906,12.906,0,0,0-4.814-9.936,18.631,18.631,0,0,0-10.515-3.974c-4.09-.312-8.694.725-10.98,4.131a3.588,3.588,0,0,0-.673,3.1,1.985,1.985,0,0,0,.559.859c1.021.908,2.038.225,3.078.165a3.4,3.4,0,0,1,3.176,2.431,7.323,7.323,0,0,1-.114,4.232,10.556,10.556,0,0,0-.533,2.573,2.587,2.587,0,0,0,1.072,2.278,2.953,2.953,0,0,0,2.961-.312,20.556,20.556,0,0,1,2.633-1.686,2.327,2.327,0,0,1,2.825.571,3.123,3.123,0,0,1,.357,1.031c.5,2.3.388,2.161.892,4.457Z" transform="translate(-589.757 -282.858)"/>
  <path id="路径_107" data-name="路径 107" class="cls-9" d="M888.842,649.9l-69.3-24.136a4.757,4.757,0,0,1-2.924-6.05L834.623,568a3.485,3.485,0,0,1,4.432-2.143L910.7,590.807a3.545,3.545,0,0,1,2.18,4.509l-17.989,51.656a4.757,4.757,0,0,1-6.05,2.925Z" transform="translate(-501.235 -356.345)"/>
  <path id="路径_108" data-name="路径 108" class="cls-2" d="M832.778,630.6l60.6,21.105a4.607,4.607,0,0,0,5.867-2.836l14.543-41.758a4.608,4.608,0,0,0-2.836-5.867l-60.6-21.105a4.608,4.608,0,0,0-5.867,2.836l-14.542,41.758A4.608,4.608,0,0,0,832.778,630.6Z" transform="translate(-508.561 -364.159)"/>
  <path id="路径_109" data-name="路径 109" class="cls-4" d="M866.129,620.855l-3-1.045a.651.651,0,0,1-.4-.828l1.045-3a.651.651,0,0,1,.828-.4l3,1.045a.65.65,0,0,1,.4.828l-1.045,3A.651.651,0,0,1,866.129,620.855Z" transform="translate(-526.694 -383.749)"/>
  <path id="路径_110" data-name="路径 110" class="cls-5" d="M860.119,638.111l-3-1.045a.651.651,0,0,1-.4-.828l1.045-3a.651.651,0,0,1,.828-.4l3,1.045a.651.651,0,0,1,.4.828l-1.045,3A.651.651,0,0,1,860.119,638.111Z" transform="translate(-523.392 -393.229)"/>
  <path id="路径_111" data-name="路径 111" class="cls-3" d="M854.11,655.367l-3-1.045a.651.651,0,0,1-.4-.828l1.045-3a.651.651,0,0,1,.828-.4l3,1.045a.651.651,0,0,1,.4.828l-1.045,3A.651.651,0,0,1,854.11,655.367Z" transform="translate(-520.091 -402.709)"/>
  <path id="路径_112" data-name="路径 112" class="cls-3" d="M896.912,631.5l-14.461-5.036a.65.65,0,0,1,.428-1.228l14.461,5.036a.65.65,0,0,1-.428,1.228Z" transform="translate(-537.31 -389.054)"/>
  <path id="路径_113" data-name="路径 113" class="cls-3" d="M890.9,648.756l-14.461-5.036a.65.65,0,1,1,.428-1.228l14.461,5.036a.65.65,0,0,1-.428,1.228Z" transform="translate(-534.009 -398.534)"/>
  <path id="路径_114" data-name="路径 114" class="cls-3" d="M884.893,666.012l-14.461-5.036a.65.65,0,1,1,.427-1.228l14.461,5.036a.65.65,0,1,1-.428,1.228Z" transform="translate(-530.707 -408.014)"/>
  <path id="路径_115" data-name="路径 115" class="cls-4" d="M972.8,660.951c.105-.253.2-.51.3-.772a13.626,13.626,0,0,0-8.387-17.35l-4.753,13.648Z" transform="translate(-580.126 -398.739)"/>
  <path id="路径_116" data-name="路径 116" class="cls-5" d="M940.6,657.391l4.753-13.648a13.626,13.626,0,1,0,8.091,18.121Z" transform="translate(-562.155 -398.823)"/>
  <path id="路径_117" data-name="路径 117" class="cls-6" d="M994.627,607.714a4.532,4.532,0,0,1,4.948-4.879l6.7-14.642,4.435,7.1-7.045,12.816a4.556,4.556,0,0,1-9.04-.392Z" transform="translate(-599.168 -368.723)"/>
  <path id="路径_118" data-name="路径 118" class="cls-5" d="M1013.194,557.356a2.031,2.031,0,0,1-1.156-.361l-3.164-2.191a2.034,2.034,0,0,1-.806-2.186l3.72-14.051-4.5-26.088a6.532,6.532,0,0,1,13.065-.063l3.685,16.278a20.9,20.9,0,0,1-2.008,14.573l-7.055,13.027a2.031,2.031,0,0,1-1.312,1.006A2.008,2.008,0,0,1,1013.194,557.356Z" transform="translate(-606.134 -323.522)"/>
  <path id="路径_120" data-name="路径 120" class="cls-10" d="M490.54,659.26h5.525l2.628-21.309h-8.154Z" transform="translate(-276.054 -350.474)"/>
  <path id="路径_121" data-name="路径 121" class="cls-7" d="M589.914,782.4h10.88a6.933,6.933,0,0,1,6.934,6.933v.225H589.914Z" transform="translate(-376.837 -475.413)"/>
  <path id="路径_122" data-name="路径 122" class="cls-10" d="M441.54,659.26h5.525l2.628-21.309h-8.154Z" transform="translate(-249.134 -350.474)"/>
  <path id="路径_123" data-name="路径 123" class="cls-7" d="M540.914,782.4h10.88a6.933,6.933,0,0,1,6.934,6.934v.225H540.914Z" transform="translate(-349.918 -475.413)"/>
  <circle id="椭圆_104" data-name="椭圆 104" class="cls-10" cx="11.068" cy="11.068" r="11.068" transform="translate(204.521 139.124)"/>
  <path id="路径_124" data-name="路径 124" class="cls-7" d="M571.3,662.573H561.047a2.028,2.028,0,0,1-2.028-2.052l.6-48.682a.676.676,0,0,0-1.347-.09L552.3,660.791a2.03,2.03,0,0,1-2.013,1.783H539.938a2.028,2.028,0,0,1-2.022-2.186l6.835-87.455.186-.02,32.728-3.535-4.341,91.264A2.025,2.025,0,0,1,571.3,662.573Z" transform="translate(-348.267 -358.387)"/>
  <path id="路径_125" data-name="路径 125" class="cls-5" d="M551.4,522.616a2.026,2.026,0,0,1-2.021-1.964c-.179-5.53-.485-24.664,3.074-38.711a18.441,18.441,0,0,1,17.031-13.9h0a18.556,18.556,0,0,1,18.277,11.727c5.982,15.188,11.634,33.908,4.588,36.844-9.235,3.848-33.582,5.563-40.824,6Q551.458,522.616,551.4,522.616Z" transform="translate(-354.514 -302.702)"/>
  <path id="路径_126" data-name="路径 126" class="cls-10" d="M641.224,399.871a4.742,4.742,0,0,0,.561.493l-1.162,22.318-4.833,2.474,2.781,7.781,8.981-3.549a3.6,3.6,0,0,0,2.265-3.686l-2.353-25.316a4.73,4.73,0,1,0-6.241-.515Z" transform="translate(-402.04 -260.865)"/>
  <path id="路径_127" data-name="路径 127" class="cls-5" d="M627.652,460.443l3.4,9.661a2.028,2.028,0,0,1-1.527,2.664L619.5,474.71a5.632,5.632,0,0,1-3.708-10.636l9-4.751a2.028,2.028,0,0,1,2.859,1.12Z" transform="translate(-388.978 -297.797)"/>
  <path id="路径_128" data-name="路径 128" class="cls-10" d="M530.965,399.871a4.768,4.768,0,0,1-.562.493l1.162,22.318,4.832,2.474-2.78,7.781-8.981-3.549a3.6,3.6,0,0,1-2.265-3.686l2.353-25.316a4.73,4.73,0,1,1,6.241-.515Z" transform="translate(-339.722 -260.865)"/>
  <path id="路径_129" data-name="路径 129" class="cls-5" d="M539.477,459.228a2.026,2.026,0,0,1,1.686.094l9,4.751a5.632,5.632,0,0,1-3.708,10.636l-10.024-1.941A2.028,2.028,0,0,1,534.9,470.1l3.4-9.661A2.025,2.025,0,0,1,539.477,459.228Z" transform="translate(-346.553 -297.796)"/>
  <path id="路径_130" data-name="路径 130" class="cls-7" d="M581.733,412.175a7.274,7.274,0,0,1,4.074-6.835c3.364-1.737,5.478-5.441,4.552-8.824-1.186-4.33-7.079-7.138-11.854-5.649a21.89,21.89,0,0,0-3.722,1.73l-3.12,1.672a32.313,32.313,0,0,0-3.846,2.27,12.759,12.759,0,0,0-5.079,11.955c.614,4.4,3.5,8.439,7.443,11.2a12.587,12.587,0,0,0,5.1,2.267,6.777,6.777,0,0,0,5.38-1.219c2.161-1.838,1.938-4.917,1.239-7.488A5.449,5.449,0,0,1,581.733,412.175Z" transform="translate(-361.846 -260.096)"/>
  <path id="路径_132" data-name="路径 132" class="cls-9" d="M257.721,541.565l-70.648,28.983a4.95,4.95,0,0,1-6.451-2.7L159,515.134a3.626,3.626,0,0,1,1.976-4.726l73.036-29.963a3.689,3.689,0,0,1,4.808,2.011l21.6,52.658a4.95,4.95,0,0,1-2.7,6.451Z" transform="translate(-139.953 -309.378)"/>
  <path id="路径_133" data-name="路径 133" class="cls-2" d="M197.956,572.494l61.777-25.344a4.794,4.794,0,0,0,2.616-6.255l-17.463-42.567a4.794,4.794,0,0,0-6.255-2.616l-61.776,25.344a4.8,4.8,0,0,0-2.616,6.255L191.7,569.878A4.794,4.794,0,0,0,197.956,572.494Z" transform="translate(-148.277 -317.719)"/>
  <rect id="矩形_31" data-name="矩形 31" class="cls-9" width="0.982" height="0.164" transform="translate(95.359 192.59) rotate(-22.306)"/>
  <path id="路径_134" data-name="路径 134" class="cls-9" d="M255.327,530.366l-1.835.753-.062-.151,1.835-.753Zm-3.67,1.506-1.835.753-.062-.151,1.835-.753Zm-3.67,1.505-1.835.753-.062-.151,1.835-.753Zm-3.67,1.505-1.835.753-.062-.151,1.835-.753Zm-3.67,1.505-1.835.753-.062-.151,1.835-.753Zm-3.67,1.505-1.835.753-.062-.151,1.835-.753Zm-3.67,1.505-1.835.753-.062-.151,1.835-.753Zm-3.67,1.506-1.835.753-.062-.151,1.835-.753Zm-3.67,1.505-1.835.753-.062-.151,1.835-.753Zm-3.67,1.505-1.835.753-.062-.151,1.835-.753Zm-3.67,1.505-1.835.753-.062-.151,1.835-.753Zm-3.67,1.505-1.835.753-.062-.151,1.835-.753Zm-3.67,1.505-1.835.753-.062-.151,1.835-.753Zm-3.67,1.505-1.835.753-.062-.151,1.835-.753Zm-3.67,1.505-1.835.753-.062-.151,1.835-.753Zm-3.67,1.506-1.835.753-.062-.151,1.835-.753Z" transform="translate(-161.741 -336.872)"/>
  <rect id="矩形_32" data-name="矩形 32" class="cls-9" width="0.982" height="0.164" transform="translate(33.901 217.803) rotate(-22.306)"/>
  <rect id="矩形_33" data-name="矩形 33" class="cls-9" width="0.982" height="0.164" transform="translate(71.314 218.901) rotate(-22.306)"/>
  <path id="路径_135" data-name="路径 135" class="cls-9" d="M238.316,588.73l-1.808.742-.062-.151,1.808-.742Zm-3.615,1.483-1.808.742-.062-.151,1.808-.741Zm-3.615,1.483-1.808.742-.062-.151,1.808-.741Zm-3.615,1.483-1.808.741-.062-.151,1.808-.742Zm-3.615,1.483-1.808.742-.062-.151,1.808-.742Zm-3.615,1.483-1.808.741-.062-.151,1.808-.742Zm-3.615,1.483-1.808.742-.062-.151,1.808-.742Zm-3.615,1.483-1.808.742-.062-.151,1.808-.741Z" transform="translate(-168.748 -368.935)"/>
  <rect id="矩形_34" data-name="矩形 34" class="cls-9" width="0.982" height="0.164" transform="translate(39.676 231.881) rotate(-22.306)"/>
  <rect id="矩形_35" data-name="矩形 35" class="cls-9" width="0.982" height="0.164" transform="translate(56.336 232.828) rotate(-22.306)"/>
  <path id="路径_136" data-name="路径 136" class="cls-9" d="M226.681,619.683l-1.86.763-.062-.151,1.86-.763Zm-3.719,1.526-1.86.763-.062-.151,1.86-.763Zm-3.719,1.526-1.86.763-.062-.151,1.86-.763Z" transform="translate(-172.143 -385.94)"/>
  <rect id="矩形_36" data-name="矩形 36" class="cls-9" width="0.982" height="0.164" transform="translate(42.409 238.541) rotate(-22.306)"/>
  <rect id="矩形_37" data-name="矩形 37" class="cls-9" width="0.982" height="0.164" transform="translate(60.998 244.194) rotate(-22.306)"/>
  <path id="路径_137" data-name="路径 137" class="cls-9" d="M237.029,644.906l-1.86.763-.062-.151,1.86-.763Zm-3.719,1.526-1.86.763-.062-.151,1.86-.763Zm-3.719,1.526-1.86.763-.062-.151,1.86-.763Z" transform="translate(-177.828 -399.797)"/>
  <rect id="矩形_38" data-name="矩形 38" class="cls-9" width="0.982" height="0.164" transform="translate(47.072 249.908) rotate(-22.306)"/>
  <path id="路径_138" data-name="路径 138" class="cls-4" d="M233.132,585.835l52.351-21.477a5.174,5.174,0,0,0,2.82-6.743l-10.577-25.783-.1.046L264.777,562.6l-9.528-3.984a1.235,1.235,0,0,0-1.1.069,1.316,1.316,0,0,0-.546.646l-6.733,16.1-6.967-2.912a1.24,1.24,0,0,0-1.623.666C238.237,573.287,233.941,583.826,233.132,585.835Z" transform="translate(-180.83 -337.761)"/>
  <path id="路径_139" data-name="路径 139" class="cls-5" d="M232.591,585.716l-.151-.063,5.387-12.882a1.392,1.392,0,0,1,1.82-.747l6.829,2.856,6.695-16.008a1.392,1.392,0,0,1,1.82-.747l9.391,3.927,12.913-30.878.151.063-12.976,31.029-9.542-3.99a1.227,1.227,0,0,0-1.605.659l-6.758,16.159-6.98-2.919a1.229,1.229,0,0,0-1.606.659Z" transform="translate(-180.45 -337.399)"/>
  <circle id="椭圆_105" data-name="椭圆 105" class="cls-5" cx="1.145" cy="1.145" r="1.145" transform="translate(56.129 231.386)"/>
  <circle id="椭圆_106" data-name="椭圆 106" class="cls-5" cx="1.145" cy="1.145" r="1.145" transform="translate(71.108 217.46)"/>
  <circle id="椭圆_107" data-name="椭圆 107" class="cls-5" cx="1.145" cy="1.145" r="1.145" transform="translate(94.43 191.108)"/>
  <path id="路径_140" data-name="路径 140" class="cls-6" d="M178.808,565.479a4.549,4.549,0,0,0,1.627-6.783l3.4-33.258h-7.351l-2.7,32.475a4.574,4.574,0,0,0,5.026,7.566Z" transform="translate(-147.339 -334.247)"/>
  <circle id="椭圆_108" data-name="椭圆 108" class="cls-6" cx="10.4" cy="10.4" r="10.4" transform="translate(27.819 152.036)"/>
  <path id="路径_141" data-name="路径 141" class="cls-11" d="M194.589,526.078a1.9,1.9,0,0,1-1.833-1.4c-.833-3.028-3-8.146-6.443-15.215a12.6,12.6,0,0,1,7.157-17.4h0a12.6,12.6,0,0,1,16.187,8.025c2.668,8.365,2.539,17.325,2.36,20.789a1.91,1.91,0,0,1-1.5,1.764L195,526.034A1.893,1.893,0,0,1,194.589,526.078Z" transform="translate(-154.411 -315.519)"/>
  <path id="路径_142" data-name="路径 142" class="cls-6" d="M137.081,662.012h5.191l2.47-20.024H137.08Z" transform="translate(-81.872 -352.692)"/>
  <path id="路径_143" data-name="路径 143" class="cls-7" d="M0,0H16.316V6.3H6.3A6.3,6.3,0,0,1,0,0H0Z" transform="translate(70.411 314.141) rotate(179.997)"/>
  <path id="路径_144" data-name="路径 144" class="cls-6" d="M21.882,650.1l4.55,2.5,11.812-16.357-6.714-3.692Z" transform="translate(-18.585 -347.51)"/>
  <path id="路径_145" data-name="路径 145" class="cls-7" d="M0,0H16.316V6.3H6.3A6.3,6.3,0,0,1,0,0H0Z" transform="translate(14.298 314.141) rotate(-151.199)"/>
  <path id="路径_146" data-name="路径 146" class="cls-7" d="M181.881,648.03a1.905,1.905,0,0,1-1.888-1.66L173.5,596.339a1.059,1.059,0,0,0-1.977-.375l-27.058,49.091a1.916,1.916,0,0,1-2.347.861l-5.9-2.247a1.905,1.905,0,0,1-1.087-2.5l18.744-46.045a1.468,1.468,0,0,0,.1-.365c2.539-19.65,9-29.642,10.917-32.236a1.476,1.476,0,0,0,.21-1.344l-.264-.792a1.9,1.9,0,0,1,.367-1.853c6.916-7.877,18.969-3.579,19.09-3.535l.06.022.038.052c13.516,18.536,8.518,78.739,7.379,90.619a1.9,1.9,0,0,1-1.751,1.715l-7.992.615C181.98,648.029,181.93,648.03,181.881,648.03Z" transform="translate(-126.915 -349.824)"/>
  <path id="路径_147" data-name="路径 147" class="cls-6" d="M258.169,484.255a4.454,4.454,0,0,0-.1.695l-18.19,10.494-4.422-2.545-4.714,6.171,7.389,5.267a3.388,3.388,0,0,0,4.064-.1l18.757-14.8a4.445,4.445,0,1,0-2.784-5.184Z" transform="translate(-179.517 -309.738)"/>
  <path id="路径_148" data-name="路径 148" class="cls-11" d="M228.375,503.876,222.5,511.5a1.906,1.906,0,0,1-2.881.158l-6.656-6.911a5.292,5.292,0,0,1,6.49-8.361l8.348,4.668a1.906,1.906,0,0,1,.578,2.827Z" transform="translate(-168.623 -317.674)"/>
  <path id="路径_149" data-name="路径 149" class="cls-11" d="M185.641,522.262l-9.471-1.71a1.906,1.906,0,0,1-1.467-2.485l3.07-9.09a5.292,5.292,0,0,1,10.41,1.911l-.3,9.559a1.906,1.906,0,0,1-2.243,1.815Z" transform="translate(-148.676 -322.821)"/>
  <path id="路径_150" data-name="路径 150" class="cls-7" d="M159.9,440.673c2.673,1.83,6.183,3.71,8.913,1.762a4.968,4.968,0,0,0,1.631-5.727c-1.307-3.738-4.9-5.384-8.334-6.646-4.465-1.64-9.327-2.945-13.936-1.77s-8.683,5.637-7.851,10.321c.669,3.766,4.222,6.9,3.717,10.692-.508,3.816-4.8,5.825-8.588,6.507s-8.029.9-10.752,3.623c-3.474,3.472-2.606,9.677.662,13.343s8.2,5.327,12.98,6.457c6.333,1.5,13.182,2.283,19.2-.2s10.695-9.17,8.952-15.439c-.736-2.648-2.47-4.886-4.145-7.065s-3.372-4.457-4.011-7.13a7.413,7.413,0,0,1,1.339-6.485,1.879,1.879,0,0,0,.252-2.2Z" transform="translate(-120.036 -280.63)"/>
</svg>
