<svg xmlns="http://www.w3.org/2000/svg" width="107.1" height="139.696" viewBox="0 0 107.1 139.696">
  <defs>
    <style>
      .cls-1 {
        fill: #1dce75;
      }
    </style>
  </defs>
  <path id="路径_276" data-name="路径 276" class="cls-1" d="M173.017,66.356V34.924a31.749,31.749,0,0,1,0,63.5v-18.6l18.966-19.115L185.3,53.974,173.017,66.356l-3.306,3.334L160.8,60.707l-6.682,6.738,15.595,15.711,3.306-3.334v18.6a31.749,31.749,0,0,1,0-63.5V66.356Zm0-37.783a38.1,38.1,0,0,0,0,76.2V139.7q-36.223-19.048-47.25-49.21c-6.347-17.355-6.3-30.16-6.3-63.5Q154.111,17.464,173.017,0V28.572Zm0,76.2a38.1,38.1,0,0,0,0-76.2V0q18.9,17.462,53.55,26.985c0,33.341.047,46.146-6.3,63.5q-11.015,30.16-47.25,49.21Z" transform="translate(-119.467)"/>
</svg>
