<svg xmlns="http://www.w3.org/2000/svg" width="126.581" height="113.01" viewBox="0 0 126.581 113.01">
  <defs>
    <style>
      .cls-1 {
        fill: #eea600;
      }
    </style>
  </defs>
  <path id="路径_277" data-name="路径 277" class="cls-1" d="M124.04,170.095,74.379,84.085c-6.074-10.516-16-10.516-22.074,0L2.642,170.095c-6.073,10.526-1.1,19.113,11.032,19.113h99.333C125.146,189.208,130.108,180.621,124.04,170.095ZM56.52,108.49a9.529,9.529,0,0,1,13.642-.039,10.086,10.086,0,0,1,2.662,7.153c0,2.465-3.7,20.593-4.94,33.782H58.961c-1.084-13.188-5.1-31.316-5.1-33.782A10.1,10.1,0,0,1,56.52,108.49ZM70.038,171.2a9.554,9.554,0,0,1-13.392,0,8.906,8.906,0,0,1-2.8-6.628,9.465,9.465,0,0,1,16.194-6.686,9.137,9.137,0,0,1,2.8,6.686A8.912,8.912,0,0,1,70.038,171.2Z" transform="translate(-0.05 -76.199)"/>
</svg>
