<svg xmlns="http://www.w3.org/2000/svg" xmlns:xlink="http://www.w3.org/1999/xlink" viewBox="0 0 1024 1024"><defs><style>.cls-1,.cls-2,.cls-46{fill:#fff;}.cls-1{fill-rule:evenodd;}.cls-2{fill-opacity:0;}.cls-3{fill:#47b0f1;opacity:0.05;}.cls-24,.cls-3,.cls-4,.cls-5{isolation:isolate;}.cls-4,.cls-5{opacity:0.1;}.cls-4{fill:url(#未命名的渐变_37);}.cls-5{fill:url(#未命名的渐变_37-2);}.cls-6{fill:url(#未命名的渐变_3);}.cls-7{fill:url(#未命名的渐变_37-3);}.cls-8{fill:url(#未命名的渐变_37-4);}.cls-9{fill:url(#未命名的渐变_37-5);}.cls-10{fill:url(#未命名的渐变_37-6);}.cls-11{fill:url(#未命名的渐变_37-7);}.cls-12{fill:url(#未命名的渐变_37-8);}.cls-13{fill:url(#未命名的渐变_37-9);}.cls-14{fill:url(#未命名的渐变_37-10);}.cls-15{fill:url(#未命名的渐变_37-11);}.cls-16{fill:url(#未命名的渐变_37-12);}.cls-17{fill:url(#未命名的渐变_37-13);}.cls-18{fill:url(#未命名的渐变_37-14);}.cls-19{fill:url(#未命名的渐变_37-15);}.cls-20{fill:url(#未命名的渐变_37-16);}.cls-21{fill:url(#未命名的渐变_37-17);}.cls-22{fill:url(#未命名的渐变_37-18);}.cls-23{fill:url(#未命名的渐变_37-19);}.cls-24{opacity:0.4;fill:url(#未命名的渐变_21);}.cls-25{fill:#333;}.cls-26{fill:url(#未命名的渐变_23);}.cls-27{fill:url(#未命名的渐变_23-2);}.cls-28{fill:#ebb0b0;}.cls-29{fill:#131322;}.cls-30{fill:#efba9e;}.cls-31{fill:url(#未命名的渐变_25);}.cls-32{fill:url(#未命名的渐变_25-2);}.cls-33{fill:url(#未命名的渐变_37-20);}.cls-34{fill:url(#未命名的渐变_27);}.cls-35{fill:url(#未命名的渐变_37-21);}.cls-36{fill:#98d6fa;}.cls-37{mask:url(#mask);}.cls-38{fill:url(#未命名的渐变_37-22);}.cls-39{fill:url(#未命名的渐变_34);}.cls-40{fill:url(#未命名的渐变_37-23);}.cls-41{fill:url(#未命名的渐变_34-2);}.cls-42{fill:url(#未命名的渐变_37-24);}.cls-43{fill:url(#未命名的渐变_34-3);}.cls-44{fill:url(#未命名的渐变_37-25);}.cls-45{fill:url(#未命名的渐变_37-26);}.cls-47{fill:url(#未命名的渐变_37-27);}</style><linearGradient id="未命名的渐变_37" x1="212.14" y1="933.32" x2="212.78" y2="933.35" gradientTransform="matrix(124, 0, 0, -46, -26252, 43255.93)" gradientUnits="userSpaceOnUse"><stop offset="0" stop-color="#98d6fa"></stop><stop offset="1" stop-color="#47b0f1"></stop></linearGradient><linearGradient id="未命名的渐变_37-2" x1="212.14" y1="933.32" x2="212.78" y2="933.35" gradientTransform="matrix(124, 0, 0, -46, -25552, 43085.93)" xlink:href="#未命名的渐变_37"></linearGradient><linearGradient id="未命名的渐变_3" x1="213.77" y1="931.76" x2="214.77" y2="931.76" gradientTransform="matrix(930, 0, 0, -246, -198744, 230046.9)" gradientUnits="userSpaceOnUse"><stop offset="0" stop-color="#fff5de"></stop><stop offset="1" stop-color="#fbd2ac"></stop></linearGradient><linearGradient id="未命名的渐变_37-3" x1="211.01" y1="934.89" x2="211.64" y2="934.91" gradientTransform="matrix(74.87, 0, 0, -25.58, -15158.72, 24124.51)" xlink:href="#未命名的渐变_37"></linearGradient><linearGradient id="未命名的渐变_37-4" x1="209.74" y1="936.45" x2="210.38" y2="936.47" gradientTransform="matrix(51.89, 0, 0, -17.72, -10147.3, 16802.7)" xlink:href="#未命名的渐变_37"></linearGradient><linearGradient id="未命名的渐变_37-5" x1="209.74" y1="936.45" x2="210.38" y2="936.47" gradientTransform="matrix(51.89, 0, 0, -17.72, -10182.09, 16768.22)" xlink:href="#未命名的渐变_37"></linearGradient><linearGradient id="未命名的渐变_37-6" x1="207.92" y1="938.7" x2="208.55" y2="938.72" gradientTransform="matrix(35.97, 0, 0, -12.29, -6661.82, 11746.33)" xlink:href="#未命名的渐变_37"></linearGradient><linearGradient id="未命名的渐变_37-7" x1="209.44" y1="933.56" x2="209.04" y2="934.33" gradientTransform="matrix(40.38, 0, 0, -36.25, -8337.81, 34644.73)" xlink:href="#未命名的渐变_37"></linearGradient><linearGradient id="未命名的渐变_37-8" x1="208.91" y1="932.9" x2="209.47" y2="933.41" gradientTransform="matrix(40.64, 0, 0, -50, -8376.77, 47442.49)" xlink:href="#未命名的渐变_37"></linearGradient><linearGradient id="未命名的渐变_37-9" x1="209.46" y1="933.63" x2="210.31" y2="933.93" gradientTransform="matrix(46.95, 0, 0, -36.71, -9705.84, 35073.15)" xlink:href="#未命名的渐变_37"></linearGradient><linearGradient id="未命名的渐变_37-10" x1="210.5" y1="933.26" x2="211.35" y2="933.52" gradientTransform="matrix(61, 0, 0, -44, -12770, 41871.15)" xlink:href="#未命名的渐变_37"></linearGradient><linearGradient id="未命名的渐变_37-11" x1="208.38" y1="934.55" x2="209.23" y2="934.8" gradientTransform="matrix(38, 0, 0, -27, -7803, 26046.03)" xlink:href="#未命名的渐变_37"></linearGradient><linearGradient id="未命名的渐变_37-12" x1="213.14" y1="931.23" x2="213.53" y2="931.79" gradientTransform="matrix(200, 0, 0, -327.12, -42474.14, 305379.52)" xlink:href="#未命名的渐变_37"></linearGradient><linearGradient id="未命名的渐变_37-13" x1="213.06" y1="931.05" x2="213.44" y2="931.62" gradientTransform="matrix(192.79, 51.66, 86.25, -321.89, -121013.6, 289362.18)" xlink:href="#未命名的渐变_37"></linearGradient><linearGradient id="未命名的渐变_37-14" x1="213.14" y1="931.23" x2="213.53" y2="931.79" gradientTransform="matrix(200, 0, 0, -327.12, -41994.14, 305379.52)" xlink:href="#未命名的渐变_37"></linearGradient><linearGradient id="未命名的渐变_37-15" x1="206.13" y1="935.52" x2="206.41" y2="934.66" gradientTransform="matrix(26.15, 0, 0, -25.6, -5187.89, 24696.91)" xlink:href="#未命名的渐变_37"></linearGradient><linearGradient id="未命名的渐变_37-16" x1="205.12" y1="933.62" x2="205.17" y2="932.72" gradientTransform="matrix(22.89, 0, 0, -55.89, -4485.22, 52895.02)" xlink:href="#未命名的渐变_37"></linearGradient><linearGradient id="未命名的渐变_37-17" x1="202.23" y1="933.48" x2="202.25" y2="932.58" gradientTransform="matrix(17.45, 0, 0, -61.12, -3306.5, 57756.99)" xlink:href="#未命名的渐变_37"></linearGradient><linearGradient id="未命名的渐变_37-18" x1="205.85" y1="933.71" x2="205.91" y2="932.81" gradientTransform="matrix(24.86, 0, 0, -52.9, -4883.49, 50107.09)" xlink:href="#未命名的渐变_37"></linearGradient><linearGradient id="未命名的渐变_37-19" x1="211.33" y1="936.68" x2="212.46" y2="936.68" gradientTransform="matrix(80, 0, 0, -17.01, -16730.94, 16705.2)" xlink:href="#未命名的渐变_37"></linearGradient><linearGradient id="未命名的渐变_21" x1="214.79" y1="932.46" x2="215.79" y2="932.46" gradientTransform="matrix(-249.25, 35.03, -15.45, -109.92, 68446.27, 95777.85)" gradientUnits="userSpaceOnUse"><stop offset="0" stop-color="#f5dda7"></stop><stop offset="1" stop-color="#fa9a41"></stop></linearGradient><linearGradient id="未命名的渐变_23" x1="212.68" y1="932.06" x2="211.75" y2="932.5" gradientTransform="matrix(93.02, 0, 0, -112.18, -19375.19, 105259.82)" gradientUnits="userSpaceOnUse"><stop offset="0" stop-color="#1d181c"></stop><stop offset="0.3" stop-color="#2c2422"></stop><stop offset="0.5" stop-color="#42352c"></stop><stop offset="0.7" stop-color="#57352c"></stop><stop offset="1" stop-color="#923629"></stop></linearGradient><linearGradient id="未命名的渐变_23-2" x1="209.23" y1="932.01" x2="209.16" y2="932.45" gradientTransform="matrix(40.36, 0, 0, -168.42, -8113.8, 157678.42)" xlink:href="#未命名的渐变_23"></linearGradient><linearGradient id="未命名的渐变_25" x1="209.59" y1="932.2" x2="208.59" y2="932.2" gradientTransform="matrix(39.55, 0, 0, -111.41, -7920.77, 104352.6)" gradientUnits="userSpaceOnUse"><stop offset="0" stop-color="#ffb859"></stop><stop offset="1" stop-color="#f97b61"></stop></linearGradient><linearGradient id="未命名的渐变_25-2" x1="212.37" y1="932.15" x2="211.38" y2="932.15" gradientTransform="matrix(81.4, 0, 0, -117.9, -16918.55, 110487.19)" xlink:href="#未命名的渐变_25"></linearGradient><linearGradient id="未命名的渐变_37-20" x1="197.38" y1="933.09" x2="197.47" y2="933.65" gradientTransform="matrix(12.54, 0, 0, -43.36, -2124.19, 41032.98)" xlink:href="#未命名的渐变_37"></linearGradient><linearGradient id="未命名的渐变_27" x1="210.6" y1="932.56" x2="211.06" y2="932.65" gradientTransform="matrix(63.92, 0, 0, -72.24, -13179.43, 67960.31)" gradientUnits="userSpaceOnUse"><stop offset="0" stop-color="#f97b61"></stop><stop offset="1" stop-color="#ffb859"></stop></linearGradient><linearGradient id="未命名的渐变_37-21" x1="219.13" y1="933.41" x2="220.17" y2="933.9" gradientTransform="translate(8804.46 33823.33) rotate(180) scale(38.36 35.65)" xlink:href="#未命名的渐变_37"></linearGradient><mask id="mask" x="359.39" y="506.69" width="24.4" height="30.51" maskUnits="userSpaceOnUse"><g id="mask-27"><path id="path-26" class="cls-1" d="M381.36,507c3.5,1.85,3.09,11.54-.41,18.54-3.51,6.81-11.13,13.19-14.64,11.34s-2.68-10.92,0-17.11c3.51-7.62,11.54-14.63,15.05-12.77Z"></path></g></mask><linearGradient id="未命名的渐变_37-22" x1="214.58" y1="932.13" x2="215.22" y2="932.2" gradientTransform="matrix(-269.22, 47.47, -27.01, -153.15, 83989.98, 133303.27)" xlink:href="#未命名的渐变_37"></linearGradient><linearGradient id="未命名的渐变_34" x1="217.29" y1="931.06" x2="217.46" y2="930.99" gradientTransform="translate(-114501.92 138005.39) rotate(-135) scale(71.08 191.9)" gradientUnits="userSpaceOnUse"><stop offset="0.03" stop-color="#afdef9"></stop><stop offset="1" stop-color="#7cc9f9"></stop></linearGradient><linearGradient id="未命名的渐变_37-23" x1="215.14" y1="931.63" x2="215.68" y2="931.87" gradientTransform="translate(44748.34 202734.53) rotate(180) scale(203.58 216.82)" xlink:href="#未命名的渐变_37"></linearGradient><linearGradient id="未命名的渐变_34-2" x1="217.49" y1="931.52" x2="217.63" y2="931.46" gradientTransform="matrix(-64.64, -31.53, 95, -194.77, -73518.85, 188980.42)" xlink:href="#未命名的渐变_34"></linearGradient><linearGradient id="未命名的渐变_37-24" x1="216.3" y1="931.36" x2="216.51" y2="931.93" gradientTransform="translate(24738.53 227077.33) rotate(180) scale(110.66 242.94)" xlink:href="#未命名的渐变_37"></linearGradient><linearGradient id="未命名的渐变_34-3" x1="217.28" y1="931.99" x2="217.45" y2="931.92" gradientTransform="translate(16247.55 179556.1) rotate(180) scale(71.08 191.9)" xlink:href="#未命名的渐变_34"></linearGradient><linearGradient id="未命名的渐变_37-25" x1="195.56" y1="940.4" x2="196.6" y2="940.76" gradientTransform="matrix(11.91, 0, 0, -9.55, -2196.4, 9364.93)" xlink:href="#未命名的渐变_37"></linearGradient><linearGradient id="未命名的渐变_37-26" x1="210.88" y1="933.2" x2="211.92" y2="933.37" gradientTransform="matrix(82.65, 0, 0, -45.35, -17324.55, 42712.75)" xlink:href="#未命名的渐变_37"></linearGradient><linearGradient id="未命名的渐变_37-27" x1="210.41" y1="939.06" x2="211.45" y2="939.08" gradientTransform="matrix(70.24, 0, 0, -11.71, -14569.65, 11379.97)" xlink:href="#未命名的渐变_37"></linearGradient></defs><g id="图层_2"><g id="图层_1-2"><g id="_404"><rect id="矩形" class="cls-2" width="1024" height="1024"></rect><g id="背景"><path id="路径-58" class="cls-3" d="M76.8,581.77c-7.68-33.1-57.62-248.62,83.6-278.26s224.65,4.88,286.7-55.46,77.52-50.44,128.49-46.45S685.63,162,705.47,149,904.53,51.69,950.35,303.51c7.24,108.87,13.26,227-37.44,271.73s.93,84.91,37.44,89.38S933.28,745.53,849,778.9C792.88,804.06,430.19,876.18,213,802,108.11,757.12,84.47,614.86,76.8,581.77Z"></path><path id="形状结合" class="cls-4" d="M158,329v.15a7.51,7.51,0,0,1,6,7.35v1a7.5,7.5,0,0,1-7.5,7.5h-79a7.5,7.5,0,0,1-7.5-7.5v-1a7.5,7.5,0,0,1,7.5-7.5H109a7,7,0,0,0,7-6.76V322a7,7,0,0,0-6.76-7H106v-.15a7.5,7.5,0,0,1-6-7.35v-1a7.5,7.5,0,0,1,7.5-7.5h79a7.5,7.5,0,0,1,7.5,7.5v1a7.5,7.5,0,0,1-7.5,7.5H155a7,7,0,0,0-7,6.76V322a7,7,0,0,0,6.76,7H158Z"></path><path id="形状结合-2" class="cls-5" d="M858,159v.15a7.51,7.51,0,0,1,6,7.35v1a7.5,7.5,0,0,1-7.5,7.5h-79a7.5,7.5,0,0,1-7.5-7.5v-1a7.5,7.5,0,0,1,7.5-7.5H809a7,7,0,0,0,7-6.76V152a7,7,0,0,0-6.76-7H806v-.15a7.5,7.5,0,0,1-6-7.35v-1a7.5,7.5,0,0,1,7.5-7.5h79a7.5,7.5,0,0,1,7.5,7.5v1a7.5,7.5,0,0,1-7.5,7.5H855a7,7,0,0,0-7,6.76V152a7,7,0,0,0,6.76,7H858Z"></path><path id="形状结合-3" class="cls-6" d="M514.52,712c131.1,0,249.26,10.79,331.78,28,80.76.65,145.7,25,145.7,55,0,24.23-42.45,44.8-101.39,52.13-13,3.75-27.41,7.3-43.16,10.62A35.34,35.34,0,0,1,848,864c0,51.91-112.82,94-252,94-124.65,0-228.17-33.76-248.41-78.11C180.2,867.13,62,835.72,62,799,62,751,264.37,712,514.52,712Z"></path><g id="大雁"><path id="路径" class="cls-7" d="M686.61,226.65v-.1c-5.33-15-22.7-22.11-37.44-19.93,10.93-6.79,29-8.6,37.44,1.82v.09c8.46-10.33,26.59-8.61,37.43-1.82-14.72-2.08-32.09,5-37.43,19.93Z"></path><path id="路径-2" class="cls-8" d="M770,214.11V214c-3.7-10.42-15.73-15.31-25.94-13.81,7.57-4.71,20.07-6,25.94,1.26v.06c5.87-7.16,18.44-6,26-1.26-10.21-1.44-22.24,3.46-26,13.82Z"></path><path id="路径-3" class="cls-9" d="M735.24,179.63v-.06c-3.7-10.43-15.73-15.32-26-13.82,7.58-4.71,20.08-6,26,1.26v.06c5.87-7.15,18.43-6,26-1.25-10.22-1.45-22.24,3.45-26,13.81Z"></path><path id="路径-4" class="cls-10" d="M840.72,220.07v0c-2.56-7.23-10.9-10.63-18-9.58,5.25-3.26,13.91-4.14,18,.87v0c4.08-5,12.78-4.13,18-.87C851.63,209.49,843.29,212.89,840.72,220.07Z"></path></g><g id="石头"><path id="路径-38" class="cls-11" d="M112.4,807.52q4.35-33.32-22.4-35.89c24.14-2.3,40.12,12.39,40.38,35.89Q122.88,807.78,112.4,807.52Z"></path><path id="路径-39" class="cls-12" d="M124.12,807.65Q131.19,774,106.73,758c20.82,6.57,35.78,16.44,40.64,49.65A190.3,190.3,0,0,1,124.12,807.65Z"></path><path id="路径-40" class="cls-13" d="M151.07,808q-3.13-31.95,22.93-36.61c-16.11-.4-34.09-1.48-46.95,36.61Q143.4,807.47,151.07,808Z"></path><path id="椭圆形" class="cls-14" d="M101.41,822c16.85,0,29.59.41,29.59-15.39S117.34,778,100.5,778,70,790.81,70,806.61,84.57,822,101.41,822Z"></path><path id="椭圆形备份-6" class="cls-15" d="M134.57,822c10.49,0,18.43.25,18.43-9.44S144.49,795,134,795s-19,7.86-19,17.56S124.07,822,134.57,822Z"></path></g></g><path id="_4" class="cls-16" d="M284.64,779.8V697.91h27.22V655.69H284.64v-203h-44.8v203H177.25q-7.51,0-12.22-3.65-6.22-5.14-6.22-12A96.63,96.63,0,0,1,159.88,630h0l27-177.28H142.52l-30,192.5a57.64,57.64,0,0,0-.65,8.58q0,14.15,5.58,22.93,13.5,21.22,36.23,21.22h86.17V779.8Z"></path><path id="_0" class="cls-17" d="M463.68,718.3q8.58,2.3,20.82.17a53.24,53.24,0,0,0,18-6.21q18.33-10.63,25.94-39h0L583.63,467.4a65.39,65.39,0,0,0-3.3-44.6q-9.26-20.73-38.56-28.58h0L458.87,372q-21.35-5.72-41.18,6.32-20.15,12.4-27.36,39.32h0l-54.93,205q-7,26.07,4.3,45.09,12.41,20.68,37.74,27.47h0ZM459,672.5,397.25,656q-21.08-5.66-15.15-27.8h0l53.3-198.89a16.73,16.73,0,0,1,8.46-10.72q6-3.1,14.75-.75h0l68,18.23q18.17,4.86,12.79,24.92h0L487.1,656.29q-3.24,12.12-8.71,15.8Q472.2,676,459,672.5Z"></path><path id="_4-2" class="cls-18" d="M764.64,779.8V697.91h27.22V655.69H764.64v-203h-44.8v203H657.25q-7.51,0-12.22-3.65-6.22-5.14-6.22-12A96.63,96.63,0,0,1,639.88,630h0l27-177.28H622.52l-30,192.5a57.64,57.64,0,0,0-.65,8.58q0,14.15,5.58,22.93,13.5,21.22,36.23,21.22h86.17V779.8Z"></path><g id="草"><path id="路径-43" class="cls-19" d="M219,776.34q-2.52-11.46-14.71-16c-9.28-3-14.37-6.53-8.56-9.1,4.9-.39,15.36-4.21,23.27,18.6A13.09,13.09,0,0,1,219,776.34Z"></path><path id="路径-44" class="cls-20" d="M219.38,777.55Q212,750.19,202.72,737.6c-4.56-5.74-4.24-14,0-15.81,4.35-.48,12.35-1.23,18.38,30.21.39,2.17,2.51,14.82,0,23A5.08,5.08,0,0,1,219.38,777.55Z"></path><path id="路径-45" class="cls-21" d="M220.51,773.43q3.31-12.24-.85-31.95c-4.24-12.74-11.47-28.41,1.72-28.77,5.35.73,11.81,6.34,9.37,34.3-1.49,11.28-4.08,17.94-6.79,26.42A3.92,3.92,0,0,1,220.51,773.43Z"></path><path id="路径-46" class="cls-22" d="M223.09,776.6q-1.34-34.62,12.67-49.69c2.52-3.36,12.11-6.5,12.08,4-1,4.53-3.15,14.19-15.5,28.93-4.07,5.32-6.74,13.1-6.77,14.92C225.55,776,224.73,776.6,223.09,776.6Z"></path><path id="路径-47" class="cls-23" d="M175.06,779.65q13.86-2.58,15.29-4.39c1.43-1.8,14-9.54,21.85-3,1.71-2.19,7.18-3.9,10.32,0,1.43-6.16,10.37-10.1,14.26-9.46,4.38-.35,17.31-.2,18.28,16.87Q249.77,779.77,175.06,779.65Z"></path></g><path id="路径-5" class="cls-24" d="M272.08,821.5c22.33,7,13.44,11.18,6,15.29-13.64,7.54-7.51,14.14-.58,20.21,10.27,9,86.93,30.63,170.05,12.22,77.51-17.16,65.83-48,45.91-62C477.43,796,407.5,770.49,327.54,776c-48.12,3.3-68.78,11.56-72.79,17.93C248.11,804.47,247.21,813.71,272.08,821.5Z"></path><g id="人物"><path id="路径-6" class="cls-25" d="M320.22,794.51c-3.55,3.26-6.07,4-6.8,6.74s1.92,9,5.19,10.4c4.15,1.72,11.5,4.23,13.56,5s16.3,5.56,20.13,2.66,0-9.5-8.36-14-20.83-10-20.83-10Z"></path><path id="路径-7" class="cls-25" d="M398.31,739.68c0,4.81-1.2,7.17.29,9.56s7.92,4.76,11.15,3.29c4.09-1.86,10.94-5.52,12.89-6.51s15.18-8.13,15.67-12.91-7-6.46-15.94-3.44-21.51,8.42-21.51,8.42Z"></path><path id="路径-8" class="cls-26" d="M411,734.2c.77-44.9-7-78.81-17-85.12-12.41-14.32-34.86-20.26-34.86-20.26L318,649.08s37.54,16.23,61.21,32.49c1.86,15.92,2.85,18.61,7.23,31.1,5.46,15.52,10.66,21.9,12.2,26.33S411.85,739.87,411,734.2Z"></path><path id="路径-9" class="cls-27" d="M350,658.3c1.43,30.37-1.66,43.49-3.74,66.7S333.7,786.11,331,799.55c-1.81,9.14-16.66,3.49-15.89-4.55s1.17-56-.55-69.94S310,640.54,310,640.54l37.77-4.71Z"></path><path id="形状结合-4" class="cls-28" d="M325.79,502.08a14,14,0,0,1,9.19,4.73,11.47,11.47,0,0,1,1.78,2.59l.09.18-.1-.49c1.12.32,1.6,2.3,1.64,4.71V514c2.71-.74,4.65,7.54-1.25,7.76a6.66,6.66,0,0,1-.69,1.39c-1.49,2.17-3.12,5-5.43,6.63l0,6.08L319,536l0-7.14a10.87,10.87,0,0,1-2.48-2.9,22,22,0,0,1-2.18-4.23h.24c-7,.49-4.68-9.16-1.71-7.64,0-.32,0-.65,0-1a13.29,13.29,0,0,1,3.13-7.27A11.12,11.12,0,0,1,325.79,502.08Z"></path><path id="路径-10" class="cls-29" d="M337.61,515c4.13-3.92,5.63-17-2.19-20.34-.88-1.05-2.74-1.32-5.24-1.36-1.81-.05-2,.63-2.94.47s-2.29-2.31-5.82-2.74c-1.91-.26-7.68,1.14-8.93,2.74a18.29,18.29,0,0,0-6.37,11.74c-.74,5.54,2.17,8.29,4.59,12.49,2.24-1.39,2.78-4.59,4.36-6.67a21.81,21.81,0,0,1,8.08-5.82c6.7-1,9.91-1,12.93,5Z"></path><path id="路径-109" class="cls-30" d="M346.53,447.33a31.14,31.14,0,0,1-1.86-12.81c1.11-2.8,1.78-1.86,1.62-.25,1-1.26,4.94-7.2,12.59.09,1.38,3.81,2,11.91-2.88,16.47Q351.28,454.12,346.53,447.33Z"></path><path id="路径-11" class="cls-31" d="M328,539.39s19-25.47,18.21-89.66c1.56-10,9.83-8.79,14.31-6.67,0,0,15.48,95.94.48,109.94"></path><path id="路径-2-2" class="cls-32" d="M318.19,531q9.88,5,12.85.31c2.79.1,21-1.63,30,14.28,5.71,17.17,10,58.57,5,79.35-5,23.06-31.17,25.57-57,23.28-10.67-12.79-26.71-66.67-21-87.22Q294.27,539.34,318.19,531Z"></path><path id="路径-12" class="cls-33" d="M358,581l-4-1.8A7.81,7.81,0,0,1,349.4,573l-3.92-32.08a3,3,0,0,1,2.57-3.28,3.1,3.1,0,0,1,.86,0,5.33,5.33,0,0,1,4.39,4.62L358,581Z"></path><path id="路径-109-2" class="cls-30" d="M340.86,561.55a31.31,31.31,0,0,1,5.42-11.76c2.46-1.74,2.51-.59,1.5.67,1.48-.53,8.06-3.34,10.51,6.93-.92,4-4.83,11.07-11.39,12.25Q341.16,569.82,340.86,561.55Z"></path><path id="路径-13" class="cls-34" d="M301.22,553.3S318,558,315.87,594.74L342,560.38c10,3.08,6.6,12.41,5,18.64l-17,37.22c-6.5,11.22-16.59,8.52-21,7.68s-9.87-6-11.57-10.22c-8-11.67-12.59-24.16-12.48-45C284.92,568.74,285.06,548.55,301.22,553.3Z"></path><path id="_Path_" class="cls-35" d="M366.41,507l-11.54,19.16L343.74,533a7.12,7.12,0,0,0,.62,7c1.86,2.27,4.54,2.47,4.95,2.68q5.78-2.68,11.33-5.56l20.82-.21Z"></path><g id="矩形-2"><g id="蒙版"><path id="path-26-2" class="cls-36" d="M366.41,507c-3.5,1.85-3.09,11.54.42,18.54,3.5,6.81,11.13,13.19,14.63,11.34s2.68-10.92,0-17.11c-3.5-7.62-11.54-14.63-15-12.77Z"></path></g><g class="cls-37"><path class="cls-1" d="M361.51,524.71l7.06-3.75a4,4,0,0,1,5.41,1.65h0a4,4,0,0,1-1.65,5.41l-7.06,3.76a4,4,0,0,1-5.41-1.66h0A4,4,0,0,1,361.51,524.71Z"></path></g></g><polygon id="路径-110" class="cls-1" points="377.74 509.38 382.26 500.87 384.52 504.91 395.12 495.25 383.28 508.24 382.1 504.99 377.74 509.38"></polygon><polygon id="路径-110-2" class="cls-1" points="385.26 523.11 393.84 518.74 393.38 523.35 407.6 521.52 390.45 525.36 391.35 522.02 385.26 523.11"></polygon></g><g id="绿植"><path id="路径-61" class="cls-38" d="M959.13,676.24q49-22,44,21.64-2.85,13.54-10.24,16.92-19.26,23.46-20.37,37.61c-1.11,14.14-12.11,30.17-39.67,21q-27.54-9.17-37.83,30.68Q864,845.26,785.93,837t9.93-72q23.92-9.43,36.53-11.67t12.37-27.51q0-15.82,22.92-23.11t19.2-23.14q15.23-22.42,36.34-6.4T959.13,676.24Z"></path><path id="形状结合-5" class="cls-39" d="M960.66,691.35l-48.27,32.22q3.69-19.37,8.82-31.4c5.07-11.87-10.59,19.79-10.8,32.72l-40.24,26.86.11-.15q-1.66-25.94,1.34-36.21c-2.69,3.6-5.56,29.38-4,38l-37,24.71.34-.42s-1.91-14.27-.22-21.47c-1.67,2-2.79,17-2.3,23.34L797.91,800l3.87,3.87,31.54-22.33c8.52,5,20.21,5.79,25.86,5.27q-15.67-1.44-22.9-7.2a12.89,12.89,0,0,1-2.5,1.6L922.6,718.3c-.2.22-.38.45-.56.68q19.74,2.79,35.44-2.38c-.84-1.67-14.75,4.84-33.11.45Zm-41.33,76.86q-15.81.45-41.17-18.27a24.37,24.37,0,0,1-2.22,2.21C891.91,764.77,909.06,769.74,919.33,768.21Z"></path><path id="路径-65" class="cls-40" d="M923.73,607.12q48.25-32.83,44.78,16.51c-6.19,23.57-10.25,39.33-8.22,53.77s-4.31,41.75-36.56,53q-32.25,11.21-18.12,31.79,7.1,31.62-78.22,45.38c-85.33,13.77-65-17.87-43.06-52.16,15.87-15.88,18-25.58,18-37.72s-11.61-32,21.76-40.24q22-5,23.06-44,3.45-19.59,42-9.8Q906.24,626.93,923.73,607.12Z"></path><path id="形状结合-6" class="cls-41" d="M938.36,624.59l-35.44,45-.07-.17a44.7,44.7,0,0,1-2.35-28.28l.08-.31v0c-2.34,7.27-6.81,15.94.61,30.93l-30,38.18-.19-.27q-9-12.72-9-33.45c-1.38,4.29-1.41,24,7.16,36.26L842.55,746.4c-1.68-2.61-5.88-10-5.88-18.16-.89,5.65-.95,13.22,3.89,20.68L801.3,798.84h6.22l38-50.55c18.38,7.85,28.7,4.56,33.81,2.26q-15,3.66-31.72-5l28.87-38.44c-.16.3-.32.6-.5.92,19.21,6.73,39.15,7.52,48.36,2.73q-14.79,5.58-47-5.55l.43.15,32.17-42.84a5.17,5.17,0,0,0-.18.51q21.19,1.31,33.84-13.48c-1.34-1.3-10.35,11.8-32.15,11Z"></path><path id="路径-96" class="cls-42" d="M814.1,608.59q-18.63-25.89-33.35,5.26c-4.76,17.94,2.75,29.35-21.82,37.5q-24.58,8.16-7.44,34.15,7.15,16.35-10.58,20.91t4.27,36.22q7.62,17.36,0,23.2c-7.63,5.84-22.28,23.35-4.27,57.39s60.46,7.6,66.82-8.4-6.36-38.05,0-49,43.47-14.71,33.56-47.52c-8.25-13.42-19.74-17.3-8.21-40.16s14.46-13.67,0-36.19Q823.62,632.26,814.1,608.59Z"></path><path id="形状结合-7" class="cls-43" d="M797.19,638.35l-11.35,56.91q-11.08-16.29-16-28.43c-4.81-12,6.5,21.48,15.5,30.77l-9.46,47.45a1.29,1.29,0,0,0,0-.19q-19.51-17.16-24.65-26.55c.64,4.45,16.84,24.7,24.1,29.7l-8.71,43.65,0-.54s-11.44-8.74-15.34-15c.25,2.61,10,13.95,14.88,18.13l-7.18,36h5.47l6.51-38.09c9.58-2.47,18.39-10.2,22-14.57q-12.09,10.06-21.28,11.11a13,13,0,0,1-.63,2.89l18.33-107.27a6.56,6.56,0,0,0,.09.88q15.93-12,23.37-26.75c-1.77-.58-7,13.85-23.1,23.73Zm25.12,83.57q-10.86,11.51-42,16.19a23.4,23.4,0,0,1,0,3.14C800.5,738.88,816.13,730.27,822.31,721.92Z"></path></g><g id="乌鸦"><path id="路径-75" class="cls-44" d="M138.79,376.81q4.53-4.68,11.91-2.4c-.52,3.94-.47,7.5,0,8.51-2.37.66-8.67.25-11.91-1.75a5.5,5.5,0,0,1,2.31-2.73Z"></path><path id="形状结合-8" class="cls-45" d="M213.55,358.1c6.89.35,9.24,1.6,5.47,4.85l-1.79,1.57-.31.28-.47.43-.31.3-.16.14-.3.3c-2.63,2.55-4.57,5.24-1.18,6l.13.08.09.06.56.33.16.1c1.25.83,2.05,2.1-5.23,5.42q2.7.59,5.39,1.41c4.21,2.37,10.89,6.14,14.93,7.68a30.77,30.77,0,0,0-7.15,5.81h4.25q-41.34,21.18-58.26,0c0-.22-.09-.44-.12-.66A16.11,16.11,0,1,1,180.07,377a16.42,16.42,0,0,1-.13,2.12,67.66,67.66,0,0,1,6.66-1.5Q194.15,360.76,213.55,358.1Z"></path><circle id="椭圆形-2" class="cls-46" cx="161.05" cy="375.52" r="5.85"></circle><circle id="椭圆形-3" cx="161.05" cy="375.52" r="2.93"></circle><path id="形状结合-9" class="cls-47" d="M254.4,391.75a5.85,5.85,0,1,0-5.86-5.85A5.85,5.85,0,0,0,254.4,391.75Zm29.27,0a5.85,5.85,0,1,0-5.86-5.85A5.85,5.85,0,0,0,283.67,391.75Zm29.26,0a5.85,5.85,0,1,0-5.85-5.85A5.85,5.85,0,0,0,312.93,391.75Z"></path></g></g></g></g></svg>